<ttFont>
<head>
    <!-- Most of this table will be recalculated by the compiler -->
    <tableVersion value="1.0"/>
    <fontRevision value="1.0"/>
    <checkSumAdjustment value="0x330b26ac"/>
    <magicNumber value="0x5f0f3cf5"/>
    <flags value="00000000 00000011"/>
    <unitsPerEm value="2048"/>
    <created value="Thu Aug 15 19:01:41 2019"/>
    <modified value="Fri Aug 16 02:19:12 2019"/>
    <xMin value="-442"/>
    <yMin value="-518"/>
    <xMax value="3330"/>
    <yMax value="1955"/>
<macStyle value="00000000 00000000"/>
    <lowestRecPPEM value="3"/>
    <fontDirectionHint value="2"/>
    <indexToLocFormat value="0"/>
    <glyphDataFormat value="0"/>
  </head>
          <CharString index="0">
            -1078 vlineto
            -89 -18 -19 -144 -16 vhcurveto
            -59 return
          </CharString>
          <CharString index="1">
            rmoveto
            90 callsubr
            return
          </CharString>
          <CharString index="2">
            441 286 333 415 return
          </CharString>
          <CharString index="3">
            -655 -90 callgsubr
            return
          </CharString>
          <CharString index="4">
            rmoveto
            46 callsubr
            return
          </CharString>
          <CharString index="5">
            304 -217 207 -281 -289 -221 -212 -306 return
          </CharString>
          <CharString index="6">
            462 59 vlineto
            -114 14 -14 14 60 vvcurveto
            return
          </CharString>
          <CharString index="7">
            -539 86 callsubr
            return
          </CharString>
          <CharString index="8">
            118 callsubr
            70 callsubr
            endchar
          </CharString>
          <CharString index="9">
            55 callsubr
            endchar
          </CharString>
          <CharString index="10">
            rmoveto
            289 222 212 305 return
          </CharString>
          <CharString index="11">
            150 callsubr
            endchar
          </CharString>
          <CharString index="12">
            rmoveto
            -439 1191 -137 0 -431 -1168 -64 -174 -27 -29 -123 -16 rlinecurve
            -59 434 59 vlineto
            -155 20 -18 34 56 160 rrcurveto
            81 234 506 0 88 -251 51 -144 -21 -34 -149 -19 rlinecurve
            -59 return
          </CharString>
          <CharString index="13">
            66 callsubr
            endchar
          </CharString>
          <CharString index="14">
            57 -16 8 -12 -54 vvcurveto
            return
          </CharString>
          <CharString index="15">
            rmoveto
            -22 callsubr
            1104 vlineto
            -44 callsubr
            -29 callsubr
            endchar
          </CharString>
          <CharString index="16">
            -52 callsubr
            endchar
          </CharString>
          <CharString index="17">
            634 -71 callgsubr
            -497 44 callsubr
            462 59 vlineto
            -122 14 75 callgsubr
            return
          </CharString>
          <CharString index="18">
            rmoveto
            61 49 44 59 58 -49 45 -61 -61 return
          </CharString>
          <CharString index="19">
            rmoveto
            -313 209 -196 280 return
          </CharString>
          <CharString index="20">
            59 callsubr
            endchar
          </CharString>
          <CharString index="21">
            56 -16 9 -12 -54 vvcurveto
            -507 vlineto
            -209 137 -111 198 150 113 71 98 57 vhcurveto
            -159 vlineto
            return
          </CharString>
          <CharString index="22">
            rmoveto
            -48 callgsubr
            210 callsubr
            endchar
          </CharString>
          <CharString index="23">
            1557 rmoveto
            296 268 rlineto
            7 return
          </CharString>
          <CharString index="24">
            62 callsubr
            endchar
          </CharString>
          <CharString index="25">
            rmoveto
            1078 43 callsubr
            return
          </CharString>
          <CharString index="26">
            36 callsubr
            endchar
          </CharString>
          <CharString index="27">
            -214 vlineto
            -155 -275 rlineto
            return
          </CharString>
          <CharString index="28">
            1134 rmoveto
            215 200 211 -200 77 0 return
          </CharString>
          <CharString index="29">
            1134 rmoveto
            316 349 rlineto
            10 return
          </CharString>
          <CharString index="30">
            -1140 -90 callgsubr
            return
          </CharString>
          <CharString index="31">
            57 -16 8 -13 -53 vvcurveto
            return
          </CharString>
          <CharString index="32">
            rmoveto
            -330 -39 0 -52 72 -18 rlineto
            -93 callsubr
            return
          </CharString>
          <CharString index="33">
            rmoveto
            -56 -44 -42 -55 -54 44 -43 56 56 return
          </CharString>
          <CharString index="34">
            -215 vlineto
            -175 -359 rlineto
            return
          </CharString>
          <CharString index="35">
            1839 rmoveto
            -197 -149 -194 149 -75 0 return
          </CharString>
          <CharString index="36">
            1501 rmoveto
            -215 -199 -211 199 -77 0 return
          </CharString>
          <CharString index="37">
            484 59 vlineto
            -135 14 -15 14 76 vvcurveto
            return
          </CharString>
          <CharString index="38">
            -49 -45 -58 -59 49 -44 61 hvcurveto
            endchar
          </CharString>
          <CharString index="39">
            45 43 54 55 -45 42 -56 hvcurveto
            endchar
          </CharString>
          <CharString index="40">
            -59 hlineto
            144 -16 18 -19 -89 vvcurveto
            return
          </CharString>
          <CharString index="41">
            rmoveto
            310 -761 -78 -158 -108 -195 -72 -111 rlinecurve
            -4 173 vlineto
            163 458 79 192 231 564 58 142 23 17 95 15 rlinecurve
            60 -368 -60 vlineto
            131 -13 23 -25 -47 -122 rrcurveto
            -205 -532 -200 535 -44 119 21 24 130 14 rlinecurve
            60 -482 -60 vlineto
            92 -18 26 -22 49 -119 rrcurveto
            endchar
          </CharString>
          <CharString index="42">
            rmoveto
            139 91 71 106 107 -83 69 return
          </CharString>
          <CharString index="43">
            vlineto
            -63 -15 -15 -122 -14 vhcurveto
            -59 return
          </CharString>
          <CharString index="44">
            1078 28 callgsubr
            return
          </CharString>
          <CharString index="45">
            rmoveto
            333 -536 rlineto
            -456 vlineto
            -97 -21 -25 -155 -16 vhcurveto
            -59 568 59 vlineto
            -156 16 -20 25 97 vvcurveto
            163 callsubr
            219 callsubr
            endchar
          </CharString>
          <CharString index="46">
            rmoveto
            -9 -289 rlineto
            55 hlineto
            43 172 49 34 171 7 rrcurveto
            return
          </CharString>
          <CharString index="47">
            89 callsubr
            194 -148 75 0 -209 275 return
          </CharString>
          <CharString index="48">
            228 78 41 277 12 61 2 rcurveline
            return
          </CharString>
          <CharString index="49">
            389 998 -75 callsubr
            return
          </CharString>
          <CharString index="50">
            -334 -40 0 -52 72 -18 rlineto
            return
          </CharString>
          <CharString index="51">
            -532 86 callsubr
            return
          </CharString>
          <CharString index="52">
            1598 rmoveto
            56 44 43 54 54 -44 43 -56 -56 -45 -43 -54 -54 45 -43 56 hvcurveto
            return
          </CharString>
          <CharString index="53">
            -490 -734 489 -32 callsubr
            -56 callsubr
            -107 callsubr
            return
          </CharString>
          <CharString index="54">
            1201 rmoveto
            66 52 50 64 65 -52 50 -66 return
          </CharString>
          <CharString index="55">
            470 59 vlineto
            -120 14 -16 16 63 vvcurveto
            return
          </CharString>
          <CharString index="56">
            rmoveto
            522 114 -522 hlineto
            endchar
          </CharString>
          <CharString index="57">
            rmoveto
            200 179 196 -179 return
          </CharString>
          <CharString index="58">
            -1178 13 callsubr
            return
          </CharString>
          <CharString index="59">
            567 59 vlineto
            -156 16 -20 return
          </CharString>
          <CharString index="60">
            1835 rmoveto
            116 vlineto
            return
          </CharString>
          <CharString index="61">
            -35 callsubr
            endchar
          </CharString>
          <CharString index="62">
            25 97 vvcurveto
            1178 return
          </CharString>
          <CharString index="63">
            17 395 rlineto
            -55 hlineto
            return
          </CharString>
          <CharString index="64">
            rmoveto
            -65 callgsubr
          </CharString>
          <CharString index="65">
            1596 rmoveto
            55 44 43 55 55 -44 43 -55 -56 -44 -43 -55 -55 44 -43 56 hvcurveto
            329 hmoveto
            55 44 43 55 55 -44 43 -55 -56 -44 -43 -55 -55 44 -43 56 hvcurveto
            return
          </CharString>
          <CharString index="66">
            -7 hlineto
            -47 -36 -33 -40 -41 36 -31 47 hvcurveto
            308 hmoveto
            47 35 31 41 40 -35 33 -47 hvcurveto
            -7 hlineto
            return
          </CharString>
          <CharString index="67">
            1598 rmoveto
            56 45 43 54 54 -45 43 -56 -56 -44 -43 -54 -54 44 -43 56 hvcurveto
            return
          </CharString>
          <CharString index="68">
            -218 126 -72 136 99 104 43 45 43 vhcurveto
            90 callgsubr
            return
          </CharString>
          <CharString index="69">
            1277 1444 -50 callgsubr
            return
          </CharString>
          <CharString index="70">
            1241 rmoveto
            562 126 -562 hlineto
            return
          </CharString>
          <CharString index="71">
            -119 -75 -58 -31 -33 -26 hvcurveto
            -54 vlineto
            8 return
          </CharString>
          <CharString index="72">
            532 59 vlineto
            -135 16 -19 17 86 vvcurveto
            return
          </CharString>
          <CharString index="73">
            402 1444 21 callsubr
            return
          </CharString>
          <CharString index="74">
            -48 -45 -58 -59 48 -44 61 hvcurveto
            endchar
          </CharString>
          <CharString index="75">
            vlineto
            86 19 18 135 15 vhcurveto
            60 return
          </CharString>
          <CharString index="76">
            -136 -106 callsubr
            return
          </CharString>
          <CharString index="77">
            rmoveto
            -157 104 -107 142 -37 vhcurveto
            -141 -39 -85 -72 -100 vvcurveto
            -1 -102 94 -63 127 -6 rrcurveto
            -187 -31 -96 -80 -105 vvcurveto
            -152 177 -104 293 286 215 145 208 171 -133 95 -232 vhcurveto
            -219 hlineto
            -107 -57 34 65 53 39 41 87 24 hvcurveto
            -8 50 35 -4 34 hhcurveto
            215 198 129 211 102 -50 90 -79 46 hvcurveto
            264 -13 0 89 -348 -18 rlineto
            23 -54 -71 15 -79 hhcurveto
            -233 -188 -137 -206 hvcurveto
            199 11 rmoveto
            152 84 106 131 141 85 -107 -162 -153 -91 -104 -124 -131 -95 101 167 vhcurveto
            -68 -885 rmoveto
            91 57 65 110 18 vhcurveto
            232 hlineto
            162 69 -61 -99 -127 -130 -86 -198 -192 -110 84 115 hvcurveto
            endchar
          </CharString>
          <CharString index="78">
            -52 -270 -71 -36 -294 -11 rrcurveto
            -271 -23 callgsubr
            258 -8 249 -9 81 -49 51 -217 rlinecurve
            55 hlineto
            return
          </CharString>
          <CharString index="79">
            rmoveto
            154 111 92 141 -8 hvcurveto
            -63 hlineto
            -65 -2 -82 -43 -110 hhcurveto
            -109 return
          </CharString>
          <CharString index="80">
            258 111 257 49 callsubr
            -42 0 -236 -178 rlineto
            return
          </CharString>
          <CharString index="81">
            1134 rmoveto
            315 349 rlineto
            10 91 callsubr
            return
          </CharString>
          <CharString index="82">
            rmoveto
            190 349 rlineto
            10 -192 vlineto
            -66 -359 rlineto
            endchar
          </CharString>
          <CharString index="83">
            -314 -57 callgsubr
            327 -22 callgsubr
          </CharString>
          <CharString index="84">
            72 0 -216 323 -106 0 -215 -323 rlineto
            endchar
          </CharString>
          <CharString index="85">
            -1058 -67 callsubr
            -107 callsubr
            return
          </CharString>
          <CharString index="86">
            554 59 vlineto
            -156 16 -20 25 97 vvcurveto
            return
          </CharString>
          <CharString index="87">
            1189 rmoveto
            90 76 71 188 return
          </CharString>
          <CharString index="88">
            -55 -44 -43 -55 -55 44 -43 55 hvcurveto
            return
          </CharString>
          <CharString index="89">
            -65 -53 -50 -65 -64 53 -50 65 hvcurveto
            return
          </CharString>
          <CharString index="90">
            rmoveto
            523 114 -523 hlineto
            endchar
          </CharString>
          <CharString index="91">
            -150 -115 -68 -96 -58 vhcurveto
            return
          </CharString>
          <CharString index="92">
            -120 0 -208 -275 rlineto
            return
          </CharString>
          <CharString index="93">
            1485 rmoveto
            137 vlineto
            return
          </CharString>
          <CharString index="94">
            -462 54 callsubr
            return
          </CharString>
          <CharString index="95">
            183 -82 callsubr
            return
          </CharString>
          <CharString index="96">
            rmoveto
            273 -770 91 0 275 744 258 -744 91 0 280 756 53 142 25 16 93 15 rlinecurve
            60 -347 -60 vlineto
            113 -12 20 -26 -42 -122 rrcurveto
            -181 -528 -175 531 -39 118 18 28 104 11 rlinecurve
            60 -430 -60 vlineto
            102 -11 20 -28 -41 -118 rrcurveto
            -185 -531 -173 531 -39 119 17 26 113 12 rlinecurve
            60 -462 -60 vlineto
            94 -19 32 -21 42 -119 rrcurveto
            endchar
          </CharString>
          <CharString index="97">
            rmoveto
            -467 338 -286 408 200 196 57 82 113 vhcurveto
            384 vlineto
            91 16 16 147 14 vhcurveto
            59 -542 -59 vlineto
            162 -15 16 -15 -91 vvcurveto
            -362 vlineto
            -48 -65 -102 -28 -123 hhcurveto
            -318 -57 callgsubr
            -24 callgsubr
            endchar
          </CharString>
          <CharString index="98">
            156 callsubr
            205 20 -37 callgsubr
            -48 -61 32 vhcurveto
            37 callgsubr
            return
          </CharString>
          <CharString index="99">
            rmoveto
            69 55 53 68 68 -55 52 -69 -69 -55 -52 -68 -68 55 -53 69 hvcurveto
            119 -197 -106 callsubr
            -93 callsubr
            return
          </CharString>
          <CharString index="100">
            rmoveto
            84 66 48 106 hvcurveto
            -64 hlineto
            -44 -1 -28 -18 -40 hhcurveto
            -26 -26 7 12 -40 hvcurveto
            -28 10 rlineto
            14 -42 -38 9 -45 hhcurveto
            -82 return
          </CharString>
          <CharString index="101">
            rmoveto
            -468 338 -285 406 204 191 60 61 81 vhcurveto
            13 315 rlineto
            -42 callgsubr
            return
          </CharString>
          <CharString index="102">
            1557 rmoveto
            295 268 rlineto
            7 -213 vlineto
            -155 -275 rlineto
            return
          </CharString>
          <CharString index="103">
            1493 rmoveto
            -191 -10 hlineto
            285 -349 rlineto
            75 hlineto
            return
          </CharString>
          <CharString index="104">
            49 37 37 48 48 -37 38 -49 hvcurveto
            -7 83 callsubr
            return
          </CharString>
          <CharString index="105">
            rmoveto
            61 48 44 59 58 -48 45 -61 -61 -69 callsubr
          </CharString>
          <CharString index="106">
            359 rmoveto
            -181 -10 hlineto
            208 -349 rlineto
            74 hlineto
            return
          </CharString>
          <CharString index="107">
            17 419 rlineto
            -54 hlineto
            -64 -289 -87 -45 -247 -9 return
          </CharString>
          <CharString index="108">
            vlineto
            61 -2 278 -12 77 -42 42 -227 rlinecurve
            54 hlineto
            return
          </CharString>
          <CharString index="109">
            1406 1211 255 -95 callsubr
            return
          </CharString>
          <CharString index="110">
            1617 442 178 77 callsubr
            return
          </CharString>
          <CharString index="111">
            -232 359 -114 0 -231 -359 rlineto
            return
          </CharString>
          <CharString index="112">
            209 -276 119 0 209 276 rlineto
            return
          </CharString>
          <CharString index="113">
            208 -276 120 0 209 276 rlineto
            return
          </CharString>
          <CharString index="114">
            1620 rmoveto
            506 112 -506 hlineto
            return
          </CharString>
          <CharString index="115">
            85 callsubr
            -242 -151 rlineto
            return
          </CharString>
          <CharString index="116">
            rmoveto
            46 36 31 41 40 -36 33 -46 hvcurveto
            return
          </CharString>
          <CharString index="117">
            1208 rmoveto
            -86 callgsubr
            return
          </CharString>
          <CharString index="118">
            59 vlineto
            -155 16 -21 25 97 vvcurveto
            return
          </CharString>
          <CharString index="119">
            vlineto
            61 14 14 114 13 vhcurveto
            60 return
          </CharString>
          <CharString index="120">
            vlineto
            -97 -20 -25 -155 -16 vhcurveto
            -59 return
          </CharString>
          <CharString index="121">
            1499 rmoveto
            -101 -73 -45 -52 return
          </CharString>
          <CharString index="122">
            1653 102 722 rmoveto
            return
          </CharString>
          <CharString index="123">
            -528 -137 rlineto
            -55 vlineto
            return
          </CharString>
          <CharString index="124">
            -231 -32 callgsubr
            return
          </CharString>
          <CharString index="125">
            711 180 270 rmoveto
            return
          </CharString>
          <CharString index="126">
            rmoveto
            384 -1191 136 0 366 1158 353 -1158 137 0 378 1168 57 175 32 28 123 16 rlinecurve
            59 -434 -59 vlineto
            156 -20 11 -32 -48 -162 rrcurveto
            -279 -950 -285 967 -44 151 11 27 147 19 rlinecurve
            59 -527 -59 vlineto
            152 -21 14 -26 -46 -157 rrcurveto
            -278 -960 -291 968 -43 145 13 32 150 19 rlinecurve
            59 -548 -59 vlineto
            114 -14 39 -26 50 -156 rrcurveto
            endchar
          </CharString>
          <CharString index="127">
            rmoveto
            538 vlineto
            167 -1 455 -715 rlineto
            302 55 hlineto
            -77 21 -53 49 -135 210 rrcurveto
            -336 530 264 293 143 160 59 44 119 23 rlinecurve
            59 -461 -59 vlineto
            157 -13 10 -43 -107 -131 rrcurveto
            -341 -412 -166 -1 rlineto
            480 -32 callsubr
            -56 callsubr
            -107 callsubr
            -46 callsubr
          </CharString>
          <CharString index="128">
            rmoveto
            -360 -59 hlineto
            132 -19 23 -26 -106 vvcurveto
            -7 -1003 rlineto
            -127 -18 -27 -142 -18 vhcurveto
            -59 432 59 vlineto
            -146 15 -19 26 -2 132 rrcurveto
            -19 1022 883 -1254 167 0 8 1213 1 127 17 27 141 18 rlinecurve
            59 -431 -59 vlineto
            146 -15 18 -26 2 -132 20 -974 rcurveline
            return
          </CharString>
          <CharString index="129">
            -216 -7 rcurveline
            1180 vlineto
            96 91 callgsubr
            -107 callsubr
            vlineto
            return
          </CharString>
          <CharString index="130">
            17 395 rlineto
            -54 hlineto
            -55 -270 -93 -34 -303 -11 rrcurveto
            -349 -43 callgsubr
            -7 callgsubr
            endchar
          </CharString>
          <CharString index="131">
            1208 rmoveto
            33 callsubr
            435 hmoveto
            -86 callgsubr
            -61 -50 -47 -60 -61 50 -47 61 hvcurveto
            return
          </CharString>
          <CharString index="132">
            393 1483 -106 callsubr
            -76 callsubr
            -77 callsubr
            -52 callsubr
            return
          </CharString>
          <CharString index="133">
            rmoveto
            167 132 63 86 68 hvcurveto
            148 callsubr
            -308 210 -201 272 vhcurveto
            endchar
          </CharString>
          <CharString index="134">
            1157 rmoveto
            182 102 81 callsubr
            -67 -10 hlineto
            -99 -80 -78 -133 -134 return
          </CharString>
          <CharString index="135">
            rmoveto
            115 112 64 116 114 -94 68 -116 hvcurveto
            -4 -3 0 return
          </CharString>
          <CharString index="136">
            1206 368 998 -106 callsubr
            -86 callsubr
            return
          </CharString>
          <CharString index="137">
            1159 1093 hmoveto
            0 callsubr
            22 callsubr
            return
          </CharString>
          <CharString index="138">
            1557 rmoveto
            73 hlineto
            -150 275 rlineto
            -222 -7 hlineto
            return
          </CharString>
          <CharString index="139">
            1888 rmoveto
            -162 -91 -123 -124 -15 1 -16 return
          </CharString>
          <CharString index="140">
            61 50 47 61 60 -50 47 -61 -94 callgsubr
            return
          </CharString>
          <CharString index="141">
            -61 -50 -47 -60 -61 50 -47 61 hvcurveto
            436 hmoveto
            return
          </CharString>
          <CharString index="142">
            1215 96 483 65 callsubr
            return
          </CharString>
          <CharString index="143">
            539 59 vlineto
            -144 16 -17 19 89 vvcurveto
            return
          </CharString>
          <CharString index="144">
            49 38 37 48 48 -38 38 -49 hvcurveto
            -7 hlineto
            return
          </CharString>
          <CharString index="145">
            1445 745 103 callsubr
            return
          </CharString>
          <CharString index="146">
            -663 vlineto
            -284 -67 callgsubr
          </CharString>
          <CharString index="147">
            -47 -35 -33 -40 -41 35 -31 47 hvcurveto
            return
          </CharString>
          <CharString index="148">
            -48 -38 -38 -48 -48 38 -37 48 hvcurveto
            return
          </CharString>
          <CharString index="149">
            rmoveto
            116 vlineto
            16 callsubr
            return
          </CharString>
          <CharString index="150">
            vlineto
            89 17 19 144 16 vhcurveto
            59 return
          </CharString>
          <CharString index="151">
            vlineto
            -60 -14 -14 -114 -14 vhcurveto
            -59 return
          </CharString>
          <CharString index="152">
            -981 vlineto
            -325 -76 -155 return
          </CharString>
          <CharString index="153">
            -466 357 -282 366 return
          </CharString>
          <CharString index="154">
            -213 vlineto
            -156 -275 rlineto
            return
          </CharString>
          <CharString index="155">
            -152 -118 -71 -98 -57 vhcurveto
            return
          </CharString>
          <CharString index="156">
            -111 0 65 -237 178 return
          </CharString>
          <CharString index="157">
            96 489 -88 callsubr
            return
          </CharString>
          <CharString index="158">
            231 -105 callgsubr
            return
          </CharString>
          <CharString index="159">
            145 -16 17 -19 -89 vvcurveto
            return
          </CharString>
          <CharString index="160">
            57 -28 -58 -56 -53 -30 -66 return
          </CharString>
          <CharString index="161">
            -60 vlineto
            74 callsubr
            return
          </CharString>
          <CharString index="162">
            rmoveto
            146 122 66 80 53 hvcurveto
            -91 21 71 -50 99 hhcurveto
            69 56 22 23 33 hvcurveto
            54 vlineto
            -6 -14 -19 -3 -20 hhcurveto
            -60 -48 34 89 hvcurveto
            503 vlineto
            212 -145 95 -223 -221 -179 -94 -133 -62 49 -46 61 63 48 45 59 48 -31 40 -40 14 vhcurveto
            29 48 63 15 69 hhcurveto
            146 99 -64 -183 hvcurveto
            -89 vlineto
            -224 -49 rlineto
            -270 -59 -112 -92 -158 vvcurveto
            -147 124 -102 166 vhcurveto
            -90 283 rmoveto
            112 70 66 201 45 vhcurveto
            135 29 rlineto
            -328 vlineto
            -66 -45 -76 -38 -93 hhcurveto
            -111 -81 67 113 hvcurveto
            return
          </CharString>
          <CharString index="163">
            rmoveto
            -122 -177 -38 -31 -119 -13 rrcurveto
            -59 444 59 vlineto
            -161 21 -4 36 93 145 rrcurveto
            246 382 273 -412 77 -113 -7 -38 -154 -21 rlinecurve
            -59 563 59 vlineto
            -104 21 -43 26 -74 113 rrcurveto
            -357 537 290 418 117 167 39 31 118 13 rlinecurve
            59 -444 -59 vlineto
            161 -21 4 -36 -92 -143 rrcurveto
            -235 -367 -262 395 -78 117 7 34 156 21 rlinecurve
            59 -559 -59 vlineto
            104 -21 38 -27 75 -112 345 -519 rcurveline
            endchar
          </CharString>
          <CharString index="164">
            rmoveto
            -389 281 -171 291 359 216 218 347 3 vhcurveto
            8 866 rlineto
            -2 12 13 -1 13 hhcurveto
            149 73 65 104 82 -52 83 -70 48 hvcurveto
            -59 hlineto
            19 -27 16 -54 -53 vvcurveto
            -117 -1 -78 -89 -191 hhcurveto
            -122 -59 hlineto
            158 -20 16 -20 -106 vvcurveto
            5 -687 rlineto
            -299 2 -161 -164 -259 hhcurveto
            -243 -182 151 309 hvcurveto
            701 vlineto
            95 21 20 153 20 vhcurveto
            59 -546 -59 vlineto
            136 -20 20 -20 -95 vvcurveto
            endchar
          </CharString>
          <CharString index="165">
            rmoveto
            -388 -59 hlineto
            131 -17 25 -28 -3 -106 rrcurveto
            -31 -1007 -5 -124 -17 -27 -140 -17 rlinecurve
            -59 424 59 vlineto
            -143 18 -17 26 1 128 rrcurveto
            8 1029 502 -1260 96 0 74 201 408 1058 27 -1079 2 -88 -19 -18 -137 -15 rlinecurve
            -59 530 59 vlineto
            -141 15 -17 19 -3 90 rrcurveto
            -29 1078 -2 89 21 20 139 15 rlinecurve
            59 -397 vlineto
            -431 -1200 rlineto
            endchar
          </CharString>
          <CharString index="166">
            167 133 63 87 68 vhcurveto
            59 vlineto
            -59 -60 -97 -38 -105 hhcurveto
            -231 -154 173 262 -9 hvcurveto
            674 hlineto
            2 16 1 24 22 vvcurveto
            254 -148 164 -262 -280 -188 -215 -303 vhcurveto
            466 437 rmoveto
            144 78 -118 -192 hvcurveto
            -7 0 -6 -6 vvcurveto
            -486 -2 rlineto
            221 12 103 110 149 hhcurveto
            return
          </CharString>
          <CharString index="167">
            rmoveto
            281 -229 142 -373 vhcurveto
            -531 -67 callsubr
            -107 callsubr
            -21 callsubr
            374 153 vlineto
            346 256 152 298 hvcurveto
            -232 -14 rmoveto
            -226 -138 -125 -291 -12 vhcurveto
            -94 -4 0 735 94 -3 rlineto
            290 -12 139 -134 -219 vvcurveto
            endchar
          </CharString>
          <CharString index="168">
            316 -165 236 -233 119 vhcurveto
            -4 22 24 -3 25 hhcurveto
            175 122 57 127 86 -56 80 -73 48 hvcurveto
            -59 hlineto
            19 -27 15 -57 -50 vvcurveto
            -123 -73 -81 -151 vhcurveto
            -90 -98 24 -128 -82 callgsubr
            70 callsubr
            endchar
          </CharString>
          <CharString index="169">
            331 40 0 51 -71 19 rlineto
            -57 15 -8 13 54 vvcurveto
            816 vlineto
            90 callsubr
            56 -16 8 -12 -54 vvcurveto
            -600 vlineto
            -65 -39 -78 -50 -104 hhcurveto
            -149 -85 87 170 hvcurveto
            return
          </CharString>
          <CharString index="170">
            1596 rmoveto
            161 139 callsubr
            -59 -9 hlineto
            -89 -71 -70 -120 -119 -71 70 89 vhcurveto
            9 -59 vlineto
            -3 -15 -1 -15 -16 vvcurveto
            -123 93 -123 161 vhcurveto
            return
          </CharString>
          <CharString index="171">
            579 vlineto
            57 51 121 39 109 hhcurveto
            40 38 -4 -6 20 hvcurveto
            11 15 9 28 28 vvcurveto
            56 -30 49 -76 -88 -89 -72 -142 -120 vhcurveto
            return
          </CharString>
          <CharString index="172">
            rmoveto
            -318 191 -185 217 145 132 71 106 54 vhcurveto
            -167 vlineto
            330 40 0 51 -70 19 rlineto
            -58 15 -8 13 54 vvcurveto
            return
          </CharString>
          <CharString index="173">
            552 59 vlineto
            -116 16 -32 28 -56 152 rrcurveto
            -797 328 rmoveto
            224 647 229 -647 rlineto
            return
          </CharString>
          <CharString index="174">
            rmoveto
            -336 -39 0 -52 72 -18 rlineto
            59 -16 8 -12 -54 vvcurveto
            -507 vlineto
            -209 187 callsubr
            endchar
          </CharString>
          <CharString index="175">
            604 vlineto
            295 -7 0 90 -295 -9 rlineto
            198 -28 vlineto
            -301 -238 rlineto
            -41 132 vlineto
            return
          </CharString>
          <CharString index="176">
            234 8 -561 174 callsubr
            -147 -5 rrcurveto
            -275 -9 567 866 rlineto
            54 vlineto
            return
          </CharString>
          <CharString index="177">
            306 190 -33 callgsubr
            -334 -307 -189 309 372 vhcurveto
            return
          </CharString>
          <CharString index="178">
            1201 rmoveto
            65 53 50 64 65 -53 50 -65 87 callsubr
            return
          </CharString>
          <CharString index="179">
            35 8 35 hhcurveto
            64 50 -30 -52 -55 -51 -30 126 callsubr
          </CharString>
          <CharString index="180">
            1134 rmoveto
            75 hlineto
            -171 359 rlineto
            -223 -10 hlineto
            return
          </CharString>
          <CharString index="181">
            120 -14 17 -15 -64 vvcurveto
            -683 -90 callgsubr
            return
          </CharString>
          <CharString index="182">
            232 -358 114 0 231 358 rlineto
            return
          </CharString>
          <CharString index="183">
            43 65 -2 hvcurveto
            -63 hlineto
            -141 -8 111 -92 return
          </CharString>
          <CharString index="184">
            rmoveto
            523 734 -523 170 callsubr
            return
          </CharString>
          <CharString index="185">
            -219 -145 vhcurveto
            29 -66 callgsubr
          </CharString>
          <CharString index="186">
            1878 rmoveto
            -89 -41 callgsubr
            return
          </CharString>
          <CharString index="187">
            -139 -140 -17 1 -18 3 -16 hvcurveto
            return
          </CharString>
          <CharString index="188">
            138 141 17 -1 18 -3 17 hvcurveto
            return
          </CharString>
          <CharString index="189">
            94 264 -94 0 55 -243 151 return
          </CharString>
          <CharString index="190">
            hlineto
            -49 -38 -38 -48 -48 38 -37 49 hvcurveto
            return
          </CharString>
          <CharString index="191">
            1420 rmoveto
            82 65 57 125 return
          </CharString>
          <CharString index="192">
            264 82 callsubr
            -43 0 return
          </CharString>
          <CharString index="193">
            -59 vlineto
            144 -16 18 -19 -89 vvcurveto
            return
          </CharString>
          <CharString index="194">
            -66 -52 -50 -65 -64 52 -50 66 hvcurveto
            return
          </CharString>
          <CharString index="195">
            -1154 -97 callsubr
            return
          </CharString>
          <CharString index="196">
            1557 rmoveto
            197 148 return
          </CharString>
          <CharString index="197">
            -334 -39 0 -52 72 -18 rlineto
            return
          </CharString>
          <CharString index="198">
            -214 vlineto
            -176 -359 rlineto
            return
          </CharString>
          <CharString index="199">
            -119 0 -209 -275 rlineto
            return
          </CharString>
          <CharString index="200">
            593 -20 -97 callsubr
            return
          </CharString>
          <CharString index="201">
            73 -58 58 -72 -71 -58 -58 -73 return
          </CharString>
          <CharString index="202">
            -1 hvcurveto
            -63 hlineto
            -52 -27 -21 -40 return
          </CharString>
          <CharString index="203">
            rmoveto
            133 35 129 117 return
          </CharString>
          <CharString index="204">
            rmoveto
            277 222 170 253 204 -120 135 -257 86 hvcurveto
            -112 38 rlineto
            -177 60 -102 76 143 vvcurveto
            144 103 102 194 177 134 -103 -223 45 vhcurveto
            55 hlineto
            -13 306 rlineto
            54 -66 -142 51 -182 hhcurveto
            -293 -202 -155 -237 -198 134 -136 240 -79 hvcurveto
            112 -38 rlineto
            192 -65 89 -92 -146 vvcurveto
            -158 -119 -107 -182 -201 -169 112 237 -53 vhcurveto
            -55 hlineto
            13 -313 rlineto
            -68 88 167 -53 203 hhcurveto
            return
          </CharString>
          <CharString index="205">
            rmoveto
            -255 334 207 261 85 107 26 26 102 18 rlinecurve
            60 -374 -60 vlineto
            130 -12 15 -20 -65 -89 rrcurveto
            -173 -230 -175 229 -65 88 13 24 134 10 rlinecurve
            60 -470 -60 vlineto
            76 -14 29 -22 62 -80 rrcurveto
            253 -333 -199 -258 -87 -114 -30 -28 -109 -20 rlinecurve
            -59 380 59 vlineto
            -121 13 -23 21 72 99 rrcurveto
            163 227 176 -232 73 -95 -16 -22 -133 -11 rlinecurve
            -59 476 59 vlineto
            -80 16 -33 23 -64 84 rrcurveto
            endchar
          </CharString>
          <CharString index="206">
            rmoveto
            -155 112 -86 180 -52 vhcurveto
            80 -24 rlineto
            137 -40 57 -50 -92 vvcurveto
            -95 -83 -69 -130 -142 -129 87 177 -37 vhcurveto
            -55 hlineto
            9 -259 rlineto
            -48 71 131 -38 154 hhcurveto
            205 179 111 180 161 -107 91 -181 52 hvcurveto
            -79 23 rlineto
            -125 36 -74 44 93 vvcurveto
            93 81 59 126 131 104 -81 -156 29 vhcurveto
            55 hlineto
            -7 249 rlineto
            36 -54 -111 34 -148 hhcurveto
            -224 -155 -105 -176 hvcurveto
            return
          </CharString>
          <CharString index="207">
            rmoveto
            -74 -68 -29 -34 -37 hvcurveto
            -58 vlineto
            6 13 22 7 31 hhcurveto
            72 39 -39 -103 hvcurveto
            -75 -6 -257 -66 vvcurveto
            -216 123 -154 244 236 201 181 373 283 -95 191 -135 -78 -53 -69 -92 25 vhcurveto
            140 -41 93 -159 -202 vvcurveto
            -235 -113 -115 -162 -159 -72 104 186 vhcurveto
            66 10 253 59 vvcurveto
            163 -70 72 -127 vhcurveto
            endchar
          </CharString>
          <CharString index="208">
            1702 851 -26 rmoveto
            411 337 338 411 411 -337 338 -411 -412 -337 -338 -411 -411 337 -338 412 hvcurveto
            60 vmoveto
            -374 -306 310 379 379 306 310 374 373 307 -310 -379 -379 -307 -310 -373 hvcurveto
            return
          </CharString>
          <CharString index="209">
            318 -191 185 -216 -144 -131 -70 -104 -54 vhcurveto
            1 650 -47 callgsubr
            -1292 65 vlineto
            100 118 rlineto
            -77 51 108 -61 133 hhcurveto
            266 210 212 313 hvcurveto
            -205 -21 rmoveto
            -256 -128 -162 -185 -103 -80 51 58 -34 vhcurveto
            40 callgsubr
            return
          </CharString>
          <CharString index="210">
            rmoveto
            445 -351 254 -476 vhcurveto
            -554 -67 callsubr
            -107 callsubr
            -56 callgsubr
            -239 -17 -61 callgsubr
            0 1306 87 callgsubr
            return
          </CharString>
          <CharString index="211">
            -2 hvcurveto
            -68 hlineto
            -98 -4 -23 -32 -41 hhcurveto
            -29 -24 14 24 -31 hvcurveto
            -30 24 rlineto
            37 -49 -41 27 -57 hhcurveto
            -91 -76 -71 -189 3 hvcurveto
            67 hlineto
            99 4 24 32 41 hhcurveto
            28 25 -14 -24 31 hvcurveto
            30 -24 rlineto
            -37 48 42 -27 57 hhcurveto
            return
          </CharString>
          <CharString index="212">
            -3 hvcurveto
            -67 hlineto
            -98 -4 -23 -32 -41 hhcurveto
            -29 -25 14 24 -30 hvcurveto
            -30 24 rlineto
            37 -49 -41 27 -58 hhcurveto
            -90 -76 -71 -189 3 hvcurveto
            67 hlineto
            99 4 23 32 41 hhcurveto
            29 25 -14 -24 30 hvcurveto
            30 -24 rlineto
            -37 49 42 -27 57 hhcurveto
            return
          </CharString>
          <CharString index="213">
            1575 rmoveto
            87 74 -45 callgsubr
            -39 hhcurveto
            -27 -102 callgsubr
            -39 25 -55 hhcurveto
            -88 -72 -67 -176 2 hvcurveto
            66 hlineto
            91 5 22 29 39 hhcurveto
            27 23 -13 -22 30 hvcurveto
            29 -22 rlineto
            -35 47 40 -24 54 hhcurveto
            return
          </CharString>
          <CharString index="214">
            rmoveto
            224 -185 122 -266 19 vhcurveto
            209 23 166 107 186 vvcurveto
            219 -197 128 -339 vhcurveto
            -578 -67 callsubr
            -107 callsubr
            195 callsubr
            endchar
          </CharString>
          <CharString index="215">
            rmoveto
            48 38 37 48 48 -38 38 -48 hvcurveto
            -7 83 callsubr
            324 hmoveto
            37 callsubr
            41 callsubr
            return
          </CharString>
          <CharString index="216">
            rmoveto
            159 113 78 120 -8 hvcurveto
            -64 hlineto
            -56 -2 -85 -37 -113 hhcurveto
            -111 -86 74 callgsubr
            512 -1275 -95 callsubr
            -94 callsubr
          </CharString>
          <CharString index="217">
            rmoveto
            139 90 71 106 107 -82 69 -36 callsubr
            17 35 8 35 hhcurveto
            64 50 -30 -52 -55 -50 -30 -67 -58 -48 16 23 -35 hvcurveto
            -59 vlineto
            -35 34 71 -29 83 hhcurveto
            endchar
          </CharString>
          <CharString index="218">
            rmoveto
            10 -722 rlineto
            -200 3 97 -86 146 hhcurveto
            99 92 38 58 48 hvcurveto
            59 vlineto
            -23 -30 -49 -16 -61 hhcurveto
            -98 -68 55 142 1 hvcurveto
            35 11 596 2 64 vhcurveto
            endchar
          </CharString>
          <CharString index="219">
            1 -56 rlineto
            3 9 18 3 18 hhcurveto
            73 53 callsubr
            -30 callgsubr
            71 -28 89 hhcurveto
            endchar
          </CharString>
          <CharString index="220">
            379 1445 rmoveto
            -67 hlineto
            -212 -106 0 -40 131 32 rlineto
            -524 vlineto
            -54 -20 -15 -103 -11 vhcurveto
            -44 395 44 vlineto
            -103 11 -20 15 54 vvcurveto
            return
          </CharString>
          <CharString index="221">
            -37 hvcurveto
            -55 vlineto
            25 29 50 21 58 hhcurveto
            70 44 -35 -51 -57 -50 -48 -92 -65 hvcurveto
            73 hlineto
            163 71 58 64 81 vvcurveto
            86 -76 60 -116 vhcurveto
            return
          </CharString>
          <CharString index="222">
            1832 rmoveto
            -188 -7 hlineto
            263 -269 rlineto
            76 hlineto
            179 276 rmoveto
            -177 -7 hlineto
            187 -269 rlineto
            73 hlineto
            return
          </CharString>
          <CharString index="223">
            0 257 -14 callsubr
            -514 -161 rlineto
            -64 vlineto
            return
          </CharString>
          <CharString index="224">
            rmoveto
            158 114 78 120 -8 hvcurveto
            -65 hlineto
            -56 -2 -84 -37 -113 hhcurveto
            -112 -85 74 callgsubr
            endchar
          </CharString>
          <CharString index="225">
            466 -358 282 -366 -440 -286 -333 -415 vhcurveto
            -31 callgsubr
            334 return
          </CharString>
          <CharString index="226">
            3 -14 hvcurveto
            59 8 hlineto
            90 71 70 119 120 71 -70 -90 vhcurveto
            -8 59 79 callgsubr
            return
          </CharString>
          <CharString index="227">
            1531 188 1266 rmoveto
            -48 callgsubr
            210 callsubr
            return
          </CharString>
          <CharString index="228">
            257 111 257 49 callsubr
            -42 0 -235 -178 rlineto
            endchar
          </CharString>
          <CharString index="229">
            rmoveto
            -333 -39 0 -52 71 -18 rlineto
            -93 callsubr
            -663 vlineto
            -284 return
          </CharString>
          <CharString index="230">
            7 16 -39 vhcurveto
            -28 11 rlineto
            16 -39 -39 10 -43 hhcurveto
            -80 -67 -56 -125 return
          </CharString>
          <CharString index="231">
            -118 -76 -58 -31 -33 -25 hvcurveto
            -54 vlineto
            8 17 72 callsubr
          </CharString>
          <CharString index="232">
            53 hhcurveto
            63 38 -29 -44 -48 -45 -41 -82 -56 -73 callgsubr
            return
          </CharString>
          <CharString index="233">
            -66 -58 -49 16 23 -34 hvcurveto
            -59 vlineto
            -35 34 71 -29 82 hhcurveto
            endchar
          </CharString>
          <CharString index="234">
            195 -148 74 0 -209 275 92 callsubr
            return
          </CharString>
          <CharString index="235">
            -69 -49 -106 -54 callgsubr
            -6 -14 -44 callgsubr
            return
          </CharString>
          <CharString index="236">
            1835 rmoveto
            528 -75 0 54 -528 137 rlineto
            return
          </CharString>
          <CharString index="237">
            388 668 -93 callgsubr
            11 callgsubr
            return
          </CharString>
          <CharString index="238">
            -1 -27 -21 -39 hhcurveto
            -25 -26 7 16 -39 hvcurveto
            -27 11 rlineto
            return
          </CharString>
          <CharString index="239">
            hhcurveto
            -80 -67 -57 -124 1 hvcurveto
            63 hlineto
            52 27 20 40 return
          </CharString>
          <CharString index="240">
            -668 rmoveto
            105 hlineto
            876 1444 rlineto
            -105 hlineto
            return
          </CharString>
          <CharString index="241">
            -7 -16 39 vhcurveto
            28 -10 rlineto
            -16 39 39 -11 43 hhcurveto
            return
          </CharString>
          <CharString index="242">
            70 64 169 -2 hvcurveto
            -63 hlineto
            -89 -4 -21 -29 return
          </CharString>
          <CharString index="243">
            18 34 8 35 hhcurveto
            65 50 -30 -52 -55 -51 -30 return
          </CharString>
          <CharString index="244">
            1814 -38 callgsubr
            -437 vmoveto
            return
          </CharString>
          <CharString index="245">
            1620 rmoveto
            507 112 -507 hlineto
            return
          </CharString>
          <CharString index="246">
            92 123 123 16 -1 15 -3 15 hvcurveto
            return
          </CharString>
          <CharString index="247">
            96 callsubr
            -3 callgsubr
            endchar
          </CharString>
          <CharString index="248">
            -91 callgsubr
            102 -138 183 vhcurveto
            return
          </CharString>
          <CharString index="249">
            rmoveto
            180 136 98 178 34 hvcurveto
            -175 73 177 -101 186 hhcurveto
            166 130 66 83 65 hvcurveto
            60 vlineto
            -59 -57 -95 -38 -106 hhcurveto
            -230 -156 175 266 -7 hvcurveto
            660 hlineto
            2 19 1 22 21 vvcurveto
            251 -145 162 -257 -137 -115 -55 -98 -76 vhcurveto
            104 -53 -115 49 -146 hhcurveto
            -223 -156 -102 -118 -61 48 -48 62 63 48 48 62 43 -26 36 -37 15 hvcurveto
            25 46 58 15 68 hhcurveto
            147 102 -85 -183 hvcurveto
            -65 vlineto
            -204 -37 rlineto
            -281 -52 -124 -108 -161 vvcurveto
            -155 123 -97 171 vhcurveto
            754 946 rmoveto
            145 70 -115 -190 hvcurveto
            -6 0 -6 -5 vvcurveto
            -471 -2 rlineto
            218 13 104 106 139 hhcurveto
            -670 -843 rmoveto
            -111 -71 68 114 112 67 77 212 42 hvcurveto
            134 26 rlineto
            -162 vlineto
            -193 -108 -84 -123 vhcurveto
            endchar
          </CharString>
          <CharString index="250">
            rmoveto
            -969 hlineto
            -610 -1178 -86 -165 -39 -27 -120 -15 rlinecurve
            -59 443 59 vlineto
            -142 19 -22 39 77 151 rrcurveto
            165 331 469 0 4 -421 rlineto
            -86 -18 -17 -137 -16 vhcurveto
            -59 1042 vlineto
            14 395 rlineto
            -55 hlineto
            -49 -270 -70 -35 -290 -12 rrcurveto
            -230 -9 -6 637 248 -3 92 -1 24 -37 31 -164 rlinecurve
            51 hlineto
            -4 477 rlineto
            -51 hlineto
            -32 -166 -23 -34 -89 -1 rrcurveto
            -248 -3 -5 601 217 -8 247 -11 80 -47 52 -217 rlinecurve
            55 hlineto
            -930 283 rmoveto
            73 hlineto
            6 -699 rlineto
            -429 hlineto
            endchar
          </CharString>
          <CharString index="251">
            rmoveto
            241 -194 149 -376 vhcurveto
            -551 -59 hlineto
            144 -15 18 -19 -90 vvcurveto
            -1078 vlineto
            -88 -18 -19 -144 -17 vhcurveto
            -59 532 59 vlineto
            -135 17 -19 17 85 vvcurveto
            472 243 vlineto
            353 -650 rlineto
            278 55 hlineto
            -61 16 -48 36 -125 226 -198 369 rcurveline
            177 44 124 130 178 vvcurveto
            -223 -18 rmoveto
            -203 -133 -104 -243 -7 vhcurveto
            -144 -5 0 658 117 -3 rlineto
            281 -10 122 -126 -200 vvcurveto
            return
          </CharString>
          <CharString index="252">
            1360 442 178 rmoveto
            538 vlineto
            167 -1 455 -715 rlineto
            302 55 hlineto
            -77 21 -53 49 -135 210 rrcurveto
            -336 530 264 293 143 160 59 44 119 23 rlinecurve
            59 -461 -59 vlineto
            157 -13 10 -43 -107 -131 rrcurveto
            -341 -412 -166 -1 rlineto
            480 -32 callsubr
            -56 callsubr
            -107 callsubr
            -35 callsubr
            return
          </CharString>
          <CharString index="253">
            rmoveto
            317 -191 186 -217 -145 -132 -73 -107 -55 vhcurveto
            170 vlineto
            -329 -39 0 -52 71 -18 rlineto
            -93 callsubr
            -1116 -2 callgsubr
            95 -47 115 hhcurveto
            263 209 212 313 hvcurveto
            -206 -21 rmoveto
            -256 -127 -162 -182 -104 -84 48 61 -33 vhcurveto
            600 vlineto
            78 43 82 43 105 hhcurveto
            179 121 -158 -254 hvcurveto
            endchar
          </CharString>
          <CharString index="254">
            271 55 hlineto
            -70 15 -50 38 -77 125 rrcurveto
            -249 402 104 98 167 154 44 24 102 17 rlinecurve
            60 -408 -60 vlineto
            123 -16 14 -28 -87 -94 rrcurveto
            -195 -211 -136 -1 0 906 -57 callsubr
            -76 callsubr
            -77 callsubr
            -101 callsubr
            360 vlineto
            137 -1 rlineto
            return
          </CharString>
          <CharString index="255">
            60 vlineto
            -58 -61 -95 -39 -104 hhcurveto
            -223 -158 168 269 243 137 151 190 71 56 -14 -29 41 hvcurveto
            -48 -8 -37 -45 -54 vvcurveto
            -61 47 -49 63 61 49 48 66 123 -107 108 -225 -278 -228 -205 -314 return
          </CharString>
          <CharString index="256">
            -914 -715 160 callsubr
            1058 -744 -93 callgsubr
            251 -141 144 -166 -174 -138 -138 -258 -252 142 -143 165 hvcurveto
            return
          </CharString>
          <CharString index="257">
            -303 217 -207 280 hvcurveto
            13 81 rmoveto
            -173 -123 176 270 257 105 162 178 173 123 -175 -270 -258 -105 -162 -178 hvcurveto
            return
          </CharString>
          <CharString index="258">
            1783 rmoveto
            46 36 31 41 41 -36 32 -46 hvcurveto
            -7 hlineto
            -47 -36 -32 -41 -41 36 -31 47 hvcurveto
            308 hmoveto
            47 35 31 41 41 -35 32 -47 hvcurveto
            -7 hlineto
            return
          </CharString>
          <CharString index="259">
            rmoveto
            82 65 56 125 95 callsubr
            -24 -26 7 16 -39 vhcurveto
            -28 11 rlineto
            17 -39 -39 10 -43 132 callsubr
            24 26 134 callsubr
            endchar
          </CharString>
          <CharString index="260">
            1762 rmoveto
            84 66 49 106 hvcurveto
            -64 hlineto
            -45 -1 -28 -18 -40 hhcurveto
            -26 -26 7 13 -40 hvcurveto
            -28 9 rlineto
            15 -42 -38 8 -45 hhcurveto
            -82 return
          </CharString>
          <CharString index="261">
            -60 -9 hlineto
            -89 -71 -70 -119 -119 -71 70 89 vhcurveto
            9 -60 vlineto
            -2 -15 -1 -15 -16 vvcurveto
            -123 92 -123 161 vhcurveto
            return
          </CharString>
          <CharString index="262">
            rmoveto
            -132 -35 -130 -117 -169 vvcurveto
            -111 56 -80 90 88 48 78 91 vhcurveto
            -85 7 -59 51 75 vvcurveto
            75 63 58 return
          </CharString>
          <CharString index="263">
            1302 vlineto
            -47 callgsubr
            -394 vlineto
            64 -54 -94 46 -115 hhcurveto
            -263 -209 -212 -313 hvcurveto
            return
          </CharString>
          <CharString index="264">
            124 110 -124 478 -116 hlineto
            -382 -510 rlineto
            -78 366 vlineto
            110 vmoveto
            -262 hlineto
            262 return
          </CharString>
          <CharString index="265">
            -68 -49 -106 hvcurveto
            65 hlineto
            45 28 18 41 25 26 -6 -14 40 vhcurveto
            29 -9 rlineto
            -14 41 38 -9 45 hhcurveto
            endchar
          </CharString>
          <CharString index="266">
            170 vvcurveto
            111 -55 79 -90 -89 -47 -77 -91 vhcurveto
            84 -7 59 -52 -74 vvcurveto
            -75 -63 -58 -83 -28 vhcurveto
            return
          </CharString>
          <CharString index="267">
            rmoveto
            -95 -54 118 230 225 50 98 92 95 54 -118 -230 -226 -50 -97 -92 hvcurveto
            return
          </CharString>
          <CharString index="268">
            rmoveto
            200 179 197 -179 71 0 -215 323 -106 0 -216 -323 rlineto
            endchar
          </CharString>
          <CharString index="269">
            -202 vlineto
            -235 -15 -158 -133 -217 vvcurveto
            -163 100 -125 226 -92 vhcurveto
            return
          </CharString>
          <CharString index="270">
            467 vlineto
            315 500 110 175 37 29 109 17 rlinecurve
            59 -424 -59 vlineto
            return
          </CharString>
          <CharString index="271">
            116 112 64 116 114 -95 68 -115 hvcurveto
            -4 -3 0 -4 hhcurveto
            61 87 rlineto
            return
          </CharString>
          <CharString index="272">
            134 133 80 -77 -100 vhcurveto
            -9 67 -92 callgsubr
            -102 139 -182 vhcurveto
            return
          </CharString>
          <CharString index="273">
            1575 rmoveto
            87 73 67 176 -2 hvcurveto
            -66 hlineto
            -91 -5 -22 -29 -39 hhcurveto
            -27 return
          </CharString>
          <CharString index="274">
            369 277 74 -277 197 vlineto
            -197 -24 rlineto
            -173 -137 vlineto
            endchar
          </CharString>
          <CharString index="275">
            39 75 50 110 hhcurveto
            142 81 -39 callgsubr
            192 callsubr
            endchar
          </CharString>
          <CharString index="276">
            5 22 29 39 hhcurveto
            27 24 -13 -22 29 hvcurveto
            29 -22 rlineto
            -35 47 40 -24 54 hhcurveto
            return
          </CharString>
          <CharString index="277">
            vlineto
            -86 -17 -17 -137 -16 vhcurveto
            -59 531 59 vlineto
            -141 16 -20 19 89 vvcurveto
            return
          </CharString>
          <CharString index="278">
            115 113 64 116 114 -95 68 -116 hvcurveto
            -3 -4 0 -3 hhcurveto
            return
          </CharString>
          <CharString index="279">
            -15 16 63 vvcurveto
            683 vlineto
            64 15 15 122 14 vhcurveto
            60 -462 -60 vlineto
            return
          </CharString>
          <CharString index="280">
            vvcurveto
            102 77 callgsubr
            70 34 65 36 78 hhcurveto
            83 52 -43 -70 -79 -75 return
          </CharString>
          <CharString index="281">
            -866 rlineto
            -54 792 vlineto
            8 310 rlineto
            -55 hlineto
            -38 -195 -59 -33 return
          </CharString>
          <CharString index="282">
            127 -416 vlineto
            159 128 rlineto
            173 137 68 82 101 vvcurveto
            return
          </CharString>
          <CharString index="283">
            61 rmoveto
            -95 -53 118 229 226 50 97 91 -55 callgsubr
            return
          </CharString>
          <CharString index="284">
            59 1213 rmoveto
            137 -1061 hlineto
            -63 -17 -16 -120 -14 vhcurveto
            -59 return
          </CharString>
          <CharString index="285">
            1134 rmoveto
            190 349 rlineto
            10 -192 vlineto
            -65 -359 rlineto
            return
          </CharString>
          <CharString index="286">
            -223 82 -181 125 -128 vhcurveto
            -128 -146 59 -52 127 145 rlineto
            -106 130 163 -57 165 hhcurveto
            -105 callsubr
            223 -82 181 -126 128 hvcurveto
            128 146 -58 52 -127 -145 rlineto
            106 -130 -164 57 -165 -82 callgsubr
            154 124 -78 -124 86 vhcurveto
            -744 -851 rlineto
            -59 114 -31 142 152 vvcurveto
            966 -36 rmoveto
            -355 -136 -290 -334 -154 -125 78 124 -85 vhcurveto
            744 851 rlineto
            58 -114 32 -142 -152 vvcurveto
            endchar
          </CharString>
          <CharString index="287">
            rmoveto
            151 99 88 197 100 hvcurveto
            -207 47 64 -72 115 hhcurveto
            67 63 31 46 39 hvcurveto
            54 vlineto
            -11 -18 -25 -8 -25 hhcurveto
            -72 -51 66 305 -84 hvcurveto
            236 519 rlineto
            -208 hlineto
            -22 -110 -32 -122 -35 -119 rrcurveto
            242 -62 -92 129 -207 hhcurveto
            -251 -161 -221 -291 -337 170 -179 194 hvcurveto
            -153 527 rmoveto
            245 80 173 133 129 57 -120 -266 50 vhcurveto
            30 -157 rlineto
            -196 -73 -75 -97 -115 hhcurveto
            -136 -80 182 236 hvcurveto
            endchar
          </CharString>
          <CharString index="288">
            rmoveto
            286 221 212 304 144 -48 123 -82 88 hvcurveto
            88 99 -56 50 -87 -97 rlineto
            66 -84 -107 37 -119 hhcurveto
            -286 -221 -212 -305 -145 50 -123 82 -89 hvcurveto
            -84 -95 56 -50 83 95 rlineto
            -66 84 106 -36 118 hhcurveto
            -286 526 rmoveto
            258 106 162 180 92 78 -49 -86 53 vhcurveto
            -468 -526 rlineto
            -26 67 -15 81 93 vvcurveto
            298 -446 rmoveto
            -91 -77 48 84 -53 hvcurveto
            468 526 rlineto
            25 -66 15 -81 -91 vvcurveto
            -258 -107 -162 -180 vhcurveto
            endchar
          </CharString>
          <CharString index="289">
            rmoveto
            -283 136 -159 187 164 114 129 156 33 vhcurveto
            26 -158 106 -128 185 1 rrcurveto
            207 149 188 319 296 -133 225 -147 -79 -52 -65 -99 25 hvcurveto
            163 -43 126 -184 -218 vvcurveto
            -184 -85 -117 -126 -137 -76 133 286 vhcurveto
            179 -191 -179 vlineto
            -307 -78 -112 -120 -121 -69 116 235 244 77 176 124 97 vhcurveto
            -36 39 rlineto
            -229 -93 -143 -227 -263 vvcurveto
            endchar
          </CharString>
          <CharString index="290">
            rmoveto
            217 150 81 104 75 hvcurveto
            60 vlineto
            -63 -73 -123 -47 -158 hhcurveto
            -166 -103 61 107 106 101 67 211 hvcurveto
            104 hlineto
            -24 144 rlineto
            -43 hlineto
            -251 -103 52 111 99 87 67 164 91 72 -14 -30 51 hvcurveto
            -34 -16 -24 -34 -42 vvcurveto
            -52 42 -53 65 61 49 47 63 119 -126 91 -255 -287 -135 -122 -157 -146 129 -99 200 -6 vhcurveto
            -223 -6 -128 -89 -138 vvcurveto
            -162 149 -103 238 vhcurveto
            endchar
          </CharString>
          <CharString index="291">
            rmoveto
            -75 59 -58 86 146 99 117 244 124 vhcurveto
            452 890 61 121 28 21 130 18 rlinecurve
            59 -444 -59 vlineto
            181 -21 3 -11 -60 -128 rrcurveto
            -313 -658 -351 663 -64 121 4 15 181 19 rlinecurve
            59 -573 -59 vlineto
            127 -17 25 -20 61 -112 rrcurveto
            476 -877 -66 -136 -55 -92 -61 -48 rlinecurve
            1 5 0 5 6 vvcurveto
            75 -58 60 -70 -71 -58 -56 -71 vhcurveto
            endchar
          </CharString>
          <CharString index="292">
            rmoveto
            82 69 32 43 33 hvcurveto
            59 vlineto
            -18 -19 -30 -13 -38 hhcurveto
            -71 -58 74 117 61 16 62 27 51 hvcurveto
            256 29 190 203 282 vvcurveto
            -102 callsubr
            -302 215 -207 280 -1 vhcurveto
            -84 -84 -51 -97 -96 vvcurveto
            -117 90 -71 101 vhcurveto
            -41 546 rmoveto
            -173 -123 176 270 257 105 162 178 173 123 -175 -270 -258 -105 -162 -178 hvcurveto
            endchar
          </CharString>
          <CharString index="293">
            211 -107 167 -171 73 hvcurveto
            -9 40 44 -4 45 hhcurveto
            152 98 64 102 81 -54 81 -72 47 hvcurveto
            -59 hlineto
            18 -27 16 -54 -52 vvcurveto
            -113 -77 -74 -132 vhcurveto
            -84 -61 18 -112 hhcurveto
            -269 -223 -215 -303 -306 202 -204 295 hvcurveto
            13 81 rmoveto
            -176 -120 176 267 265 103 157 180 175 121 -175 -267 -265 -103 -158 -180 hvcurveto
            return
          </CharString>
          <CharString index="294">
            138 -111 197 150 113 71 98 58 vhcurveto
            -159 vlineto
            335 40 0 51 -74 19 rlineto
            -59 15 -8 13 54 vvcurveto
            775 vlineto
            -2 13 14 -1 16 hhcurveto
            106 72 50 96 77 -55 85 -74 47 hvcurveto
            -59 hlineto
            19 -27 15 -54 -51 vvcurveto
            -118 -71 -73 -214 -18 vhcurveto
            -118 -10 0 -51 71 -18 rlineto
            59 -16 9 -12 -54 vvcurveto
            -600 vlineto
            -65 -40 -77 -50 -105 hhcurveto
            -149 -85 87 170 hvcurveto
            return
          </CharString>
          <CharString index="295">
            204 hlineto
            139 -5 616 -1 vvcurveto
            87 34 77 50 105 hhcurveto
            157 72 -81 -260 -289 -6 -386 -10 -335 hvcurveto
            204 hlineto
            -2 1083 rlineto
            297 -1 -149 88 -184 hhcurveto
            -155 -109 -79 -106 -44 hvcurveto
            118 -9 -75 57 -98 hhcurveto
            -72 -64 -28 -35 -37 hvcurveto
            -59 vlineto
            7 13 19 6 25 hhcurveto
            87 41 -47 -130 -2 hvcurveto
            -40 -14 -612 -2 -60 vhcurveto
            endchar
          </CharString>
          <CharString index="296">
            1249 -745 rmoveto
            -44 callsubr
            -54 -270 -93 -34 -304 -11 rrcurveto
            -348 -43 callgsubr
            -15 -352 rlineto
            55 hlineto
            45 216 59 47 297 9 rrcurveto
            362 11 -834 -1320 rlineto
            -55 vlineto
            -407 728 -61 callgsubr
            0 1306 87 callgsubr
            endchar
          </CharString>
          <CharString index="297">
            rmoveto
            742 vlineto
            278 -7 0 90 -278 -7 rlineto
            200 vlineto
            165 52 67 82 11 10 -1 -2 10 vhcurveto
            -20 -16 -12 -25 -28 vvcurveto
            -54 40 -41 54 51 42 41 54 83 -74 65 -134 -175 -134 -123 -241 vhcurveto
            -138 vlineto
            -137 -48 rlineto
            -41 137 -747 -64 callsubr
            485 59 vlineto
            -136 14 -15 14 76 vvcurveto
            endchar
          </CharString>
          <CharString index="298">
            -459 346 -281 360 -8 vhcurveto
            -86 -80 -57 -97 -92 vvcurveto
            -118 88 -72 111 77 66 32 43 31 vhcurveto
            60 vlineto
            -17 -18 -31 -14 -35 hhcurveto
            -77 -54 76 104 66 19 65 30 45 hvcurveto
            414 22 266 325 400 vvcurveto
            118 callsubr
            307 189 -33 callgsubr
            -334 -307 -189 309 372 vhcurveto
            endchar
          </CharString>
          <CharString index="299">
            454 59 vlineto
            -115 14 -14 14 60 vvcurveto
            566 vlineto
            30 -2 27 -4 24 vhcurveto
            60 42 75 42 107 hhcurveto
            145 84 -39 callgsubr
            461 59 vlineto
            -120 14 -16 16 63 vvcurveto
            536 vlineto
            208 -137 112 -200 -150 -120 -73 -98 -58 vhcurveto
            110 -45 -112 61 -151 hhcurveto
            -150 -112 -73 -96 -57 hvcurveto
            return
          </CharString>
          <CharString index="300">
            rmoveto
            323 136 vlineto
            307 -470 rlineto
            271 55 hlineto
            -70 15 -45 42 -87 129 rrcurveto
            -243 357 103 109 170 175 39 29 100 17 rlinecurve
            60 -397 -60 vlineto
            125 -17 15 -37 -96 -108 -193 -226 rcurveline
            -135 300 hlineto
            61 14 14 114 13 vhcurveto
            60 -13 callsubr
            -101 callsubr
            endchar
          </CharString>
          <CharString index="301">
            314 668 rmoveto
            156 134 84 152 111 -81 86 -126 17 hvcurveto
            107 18 72 68 87 vvcurveto
            101 77 callgsubr
            71 34 65 35 78 hhcurveto
            83 52 -42 -70 -79 -75 45 callgsubr
            -101 -74 -55 -90 -49 -39 13 21 -27 hvcurveto
            27 9 20 25 31 vvcurveto
            41 -32 30 -39 -40 -32 -31 -42 -88 100 -72 139 vhcurveto
            return
          </CharString>
          <CharString index="302">
            578 vlineto
            333 279 138 278 hvcurveto
            -300 657 rmoveto
            -173 -113 -106 -215 -1 vhcurveto
            -184 582 hlineto
            141 -4 rlineto
            268 -8 103 -117 -173 vvcurveto
            68 -675 rmoveto
            -214 -168 -103 -271 -8 vhcurveto
            -141 -4 0 655 184 -1 rlineto
            255 141 -118 -207 hvcurveto
            return
          </CharString>
          <CharString index="303">
            59 vlineto
            -59 -60 -97 -38 -105 hhcurveto
            -231 -154 173 262 -9 hvcurveto
            674 hlineto
            2 16 1 24 22 vvcurveto
            254 -148 164 -262 -280 -188 -215 -303 vhcurveto
            466 437 rmoveto
            144 78 -118 -192 hvcurveto
            -7 0 -6 -6 vvcurveto
            -486 -2 rlineto
            221 12 103 110 149 hhcurveto
            endchar
          </CharString>
          <CharString index="304">
            rmoveto
            174 -118 119 -327 vhcurveto
            -151 225 hlineto
            75 15 14 135 14 vhcurveto
            60 -484 54 callsubr
            513 vlineto
            239 178 117 190 hvcurveto
            -463 223 rmoveto
            173 -2 89 -83 -146 vvcurveto
            -147 -113 -73 -149 -6 vhcurveto
            -133 -4 rlineto
            462 vlineto
            endchar
          </CharString>
          <CharString index="305">
            1599 rmoveto
            182 111 107 120 68 -41 40 -58 -55 -38 -41 -53 -50 37 -40 49 4 3 0 1 4 hvcurveto
            -51 -39 -71 -30 -88 hhcurveto
            -90 -70 30 51 -38 hvcurveto
            -1 4 3 0 4 hhcurveto
            48 39 40 50 53 -39 41 -55 -57 -41 -40 -68 -120 111 -107 181 hvcurveto
            return
          </CharString>
          <CharString index="306">
            438 -1191 137 0 432 1168 64 174 27 29 122 16 rlinecurve
            59 -433 -59 vlineto
            155 -20 18 -34 -56 -160 rrcurveto
            -330 -959 -345 976 -51 144 21 34 150 19 rlinecurve
            59 -553 -59 vlineto
            116 -16 32 -28 56 -152 rrcurveto
            return
          </CharString>
          <CharString index="307">
            64 17 15 120 14 vhcurveto
            60 -461 -60 vlineto
            114 -13 13 -14 -61 vvcurveto
            -770 -415 770 vlineto
            61 13 14 114 13 vhcurveto
            60 -453 -60 vlineto
            114 -13 14 -14 -61 vvcurveto
            -770 -416 770 vlineto
            61 14 14 113 13 vhcurveto
            60 -461 54 callsubr
            return
          </CharString>
          <CharString index="308">
            rmoveto
            268 218 205 308 309 -190 206 -290 -276 -218 -205 -308 -308 190 -207 298 hvcurveto
            6 81 rmoveto
            -174 -106 184 264 256 99 161 175 166 107 -183 -264 -257 -99 -161 -168 hvcurveto
            endchar
          </CharString>
          <CharString index="309">
            -532 -60 vlineto
            135 -15 20 -17 -86 vvcurveto
            -1191 -584 1191 vlineto
            86 20 17 134 15 vhcurveto
            60 -524 -60 vlineto
            134 -15 20 -17 -86 vvcurveto
            -1191 -583 1191 vlineto
            86 19 17 135 15 vhcurveto
            60 -56 callsubr
            -107 callsubr
            return
          </CharString>
          <CharString index="310">
            310 -770 91 0 303 754 58 142 22 18 93 15 rlinecurve
            60 -366 -60 vlineto
            130 -13 23 -25 -44 -122 rrcurveto
            -203 -545 -206 548 -45 119 24 25 130 13 rlinecurve
            60 -487 -60 vlineto
            93 -18 26 -23 48 -118 rrcurveto
            return
          </CharString>
          <CharString index="311">
            1189 rmoveto
            91 75 71 188 -2 hvcurveto
            -67 hlineto
            -98 -5 -23 93 callgsubr
            -42 27 -57 hhcurveto
            -90 -76 -71 -189 2 hvcurveto
            67 hlineto
            99 5 23 32 41 hhcurveto
            28 25 -14 -24 31 hvcurveto
            30 -24 rlineto
            -37 49 42 -27 56 hhcurveto
            return
          </CharString>
          <CharString index="312">
            1345 1254 416 rmoveto
            224 -185 122 -266 19 vhcurveto
            209 23 166 107 186 vvcurveto
            219 -197 128 -339 vhcurveto
            -578 -67 callsubr
            -107 callsubr
            195 callsubr
            return
          </CharString>
          <CharString index="313">
            1907 rmoveto
            -70 -55 -27 -24 -30 hvcurveto
            -47 vlineto
            13 22 42 12 45 hhcurveto
            56 35 -21 -34 -34 -32 -21 -66 -17 hvcurveto
            51 -35 rlineto
            105 26 66 33 70 vvcurveto
            69 -84 37 -85 vhcurveto
            -482 -414 rmoveto
            8 callsubr
            return
          </CharString>
          <CharString index="314">
            rmoveto
            -108 118 -72 141 141 118 72 108 108 -117 72 -142 -142 -117 -72 -108 vhcurveto
            150 hmoveto
            69 46 47 63 63 46 -47 -69 -70 -46 -46 -63 -63 -46 47 69 vhcurveto
            endchar
          </CharString>
          <CharString index="315">
            -483 rmoveto
            83 75 28 44 34 hvcurveto
            59 vlineto
            -20 -21 -36 -13 -43 hhcurveto
            -59 -54 40 82 87 53 84 154 122 hvcurveto
            -63 -2 rlineto
            -224 -129 -80 -108 -109 vvcurveto
            -103 80 -62 101 vhcurveto
            endchar
          </CharString>
          <CharString index="316">
            501 vlineto
            257 -3 92 -1 25 -36 28 -164 rlinecurve
            52 477 -52 hlineto
            -33 -168 -23 -32 -89 -2 rrcurveto
            -257 -2 0 608 231 -8 244 -9 80 -48 50 -218 rlinecurve
            55 hlineto
            endchar
          </CharString>
          <CharString index="317">
            360 214 221 350 4 vhcurveto
            7 670 2 126 18 28 138 15 rlinecurve
            60 -429 -59 vlineto
            149 -16 17 -28 1 -127 7 -654 rcurveline
            215 callsubr
            return
          </CharString>
          <CharString index="318">
            1499 rmoveto
            -100 -73 -45 -52 -38 hvcurveto
            -55 vlineto
            25 29 50 21 59 hhcurveto
            69 44 -35 -51 -57 -50 -48 -92 -65 hvcurveto
            73 hlineto
            164 71 57 64 81 vvcurveto
            86 -76 60 -116 vhcurveto
            return
          </CharString>
          <CharString index="319">
            1200 444 rmoveto
            275 -208 149 -355 vhcurveto
            -195 380 hlineto
            97 91 callgsubr
            -107 callsubr
            585 vlineto
            364 187 205 239 hvcurveto
            return
          </CharString>
          <CharString index="320">
            119 -91 81 -137 -144 -90 -79 -115 -37 vhcurveto
            38 -18 rlineto
            70 30 59 43 80 hhcurveto
            83 55 -53 -81 -87 -47 -72 -133 -136 hvcurveto
            -155 -151 rlineto
            -96 vlineto
            endchar
          </CharString>
          <CharString index="321">
            0 197 485 14 -537 rlineto
            -46 -10 -10 -75 -8 vhcurveto
            -45 331 45 vlineto
            -78 8 -10 11 -1 47 -15 538 rcurveline
            48 12 10 76 9 vhcurveto
            44 vlineto
            -267 2 -208 return
          </CharString>
          <CharString index="322">
            -304 2 -163 -167 -258 hhcurveto
            -242 -182 153 312 hvcurveto
            707 vlineto
            89 17 19 145 16 vhcurveto
            59 -532 -59 vlineto
            134 -16 20 -17 -86 vvcurveto
            return
          </CharString>
          <CharString index="323">
            40 -41 48 5 4 0 1 5 hvcurveto
            -51 -37 -68 -34 -90 hhcurveto
            -89 -68 34 51 -37 hvcurveto
            -1 4 5 0 4 hhcurveto
            49 40 41 51 53 -38 42 -57 -60 -41 -40 -70 -122 return
          </CharString>
          <CharString index="324">
            1318 rmoveto
            -119 117 35 callgsubr
            -117 -81 -118 vhcurveto
            150 hmoveto
            78 46 54 63 63 46 -54 -78 -79 -46 -53 -63 -63 -46 53 79 vhcurveto
            endchar
          </CharString>
          <CharString index="325">
            667 66 rmoveto
            1012 vlineto
            89 17 19 145 16 vhcurveto
            59 -540 -59 vlineto
            52 callsubr
            45 callsubr
            -218 -145 vhcurveto
            28 -66 callgsubr
          </CharString>
          <CharString index="326">
            154 -19 6 -39 -88 -154 rrcurveto
            -256 -444 -277 460 -84 139 13 39 147 18 rlinecurve
            59 -550 -59 vlineto
            109 -15 34 -28 96 -153 rrcurveto
            return
          </CharString>
          <CharString index="327">
            -49 -165 -21 hvcurveto
            -49 vlineto
            4 17 25 2 21 hhcurveto
            114 80 -63 -106 63 callgsubr
            41 -32 30 -39 -40 -32 -31 -42 -89 100 -71 139 vhcurveto
            endchar
          </CharString>
          <CharString index="328">
            155 87 69 -25 -39 44 vhcurveto
            -44 -9 -35 -41 -51 vvcurveto
            -62 48 -45 61 59 49 47 63 147 -150 100 -205 -236 -214 -131 -265 return
          </CharString>
        <CharString name=".notdef">
          2048 143 -494 rmoveto
          88 callgsubr
          124 2444 -124 hlineto
          409 -2444 rmoveto
          88 callgsubr
          88 callgsubr
          123 2444 -123 hlineto
          endchar
        </CharString>
        <CharString name=".null">
          0 endchar
        </CharString>
        <CharString name="A">
          2 callsubr
          -94 callsubr
        </CharString>
        <CharString name="AE">
          1954 1809 1444 143 callsubr
        </CharString>
        <CharString name="AEacute">
          1954 1228 -5 callsubr
          654 -113 143 callsubr
        </CharString>
        <CharString name="AEmacron">
          1954 1005 138 callsubr
          804 -288 143 callsubr
        </CharString>
        <CharString name="Aacute">
          1406 669 -5 callsubr
          615 -1302 -95 callsubr
          -94 callsubr
        </CharString>
        <CharString name="Abreve">
          1406 699 1596 rmoveto
          162 139 callsubr
          154 callsubr
          512 -1341 -95 callsubr
          -94 callsubr
        </CharString>
        <CharString name="Abreveacute">
          1406 963 -47 callsubr
          -527 -137 rlineto
          -54 vlineto
          263 -230 109 callsubr
        </CharString>
        <CharString name="Abrevecyrillic">
          1406 699 198 callsubr
          512 -1344 -95 callsubr
          -94 callsubr
        </CharString>
        <CharString name="Abrevedotbelow">
          1406 699 1596 rmoveto
          162 139 callsubr
          154 callsubr
          512 -1341 -95 callsubr
          66 callsubr
          -209 -784 -74 callsubr
          -68 callsubr
        </CharString>
        <CharString name="Abrevegrave">
          1406 435 129 callsubr
          264 -421 109 callsubr
        </CharString>
        <CharString name="Abrevehookabove">
          1406 694 1950 rmoveto
          -74 -57 -26 -24 -32 hvcurveto
          -47 vlineto
          12 23 44 13 46 hhcurveto
          58 37 -21 -35 -34 -33 -21 -69 -17 hvcurveto
          54 -35 rlineto
          109 25 69 34 70 vvcurveto
          69 -87 37 -88 vhcurveto
          5 -420 109 callsubr
        </CharString>
        <CharString name="Abrevetilde">
          1406 814 1784 rmoveto
          83 67 47 107 hvcurveto
          -65 hlineto
          -45 -1 -27 -17 -41 hhcurveto
          -26 -25 6 13 -40 hvcurveto
          -29 10 rlineto
          13 -41 -39 92 callgsubr
          26 26 -6 -13 40 vhcurveto
          28 -10 rlineto
          -14 41 39 -8 45 hhcurveto
          -115 -254 109 callsubr
        </CharString>
        <CharString name="Acaron">
          1406 905 -72 callsubr
          5 callsubr
          235 -1584 -95 callsubr
          -94 callsubr
        </CharString>
        <CharString name="Acircumflex">
          1406 512 89 callsubr
          127 callsubr
          770 -1302 -95 callsubr
          -94 callsubr
        </CharString>
        <CharString name="Acircumflexacute">
          1406 963 1814 rmoveto
          116 vlineto
          -527 -137 rlineto
          -55 vlineto
          -1 -245 rmoveto
          265 82 callsubr
          -44 0 -241 -151 rlineto
          775 -1293 -95 callsubr
          -94 callsubr
        </CharString>
        <CharString name="Acircumflexdotbelow">
          1406 512 89 callsubr
          127 callsubr
          770 -1302 -95 callsubr
          66 callsubr
          -209 -784 -74 callsubr
          -68 callsubr
        </CharString>
        <CharString name="Acircumflexgrave">
          1406 435 137 callsubr
          265 82 callsubr
          -44 0 -241 -151 rlineto
          775 -1293 -95 callsubr
          -94 callsubr
        </CharString>
        <CharString name="Acircumflexhookabove">
          1406 917 81 callgsubr
          42 12 44 hhcurveto
          57 35 -21 -34 -34 -32 -21 -67 -17 hvcurveto
          52 -35 rlineto
          105 26 66 33 70 vvcurveto
          69 -85 37 -85 vhcurveto
          -482 -414 rmoveto
          265 82 callsubr
          -44 0 -241 -151 rlineto
          775 -1293 -95 callsubr
          -94 callsubr
        </CharString>
        <CharString name="Acircumflextilde">
          1406 814 1762 rmoveto
          83 67 49 106 hvcurveto
          -65 hlineto
          -45 -1 -27 -18 -41 hhcurveto
          -26 -25 7 13 -40 hvcurveto
          -29 9 rlineto
          15 -41 -39 8 -45 hhcurveto
          -82 -68 -48 -107 hvcurveto
          65 hlineto
          45 28 18 41 26 26 -7 -13 40 vhcurveto
          28 -9 rlineto
          -14 41 39 -9 45 hhcurveto
          -379 -269 rmoveto
          265 82 callsubr
          -44 0 -241 -151 rlineto
          775 -1293 -95 callsubr
          -94 callsubr
        </CharString>
        <CharString name="Acyrillic">
          2 callsubr
          -94 callsubr
        </CharString>
        <CharString name="Adblgrave">
          1406 491 -17 callgsubr
          307 -1301 -95 callsubr
          -94 callsubr
        </CharString>
        <CharString name="Adieresis">
          1406 535 1596 rmoveto
          56 44 43 55 55 -44 43 -56 -19 callsubr
          329 hmoveto
          56 44 43 55 55 -44 43 -56 -19 callsubr
          347 -1341 -95 callsubr
          -94 callsubr
        </CharString>
        <CharString name="Adieresismacron">
          1406 435 -35 callgsubr
          118 -343 9 callsubr
          -8 hlineto
          40 callsubr
          309 hmoveto
          46 36 31 41 40 -36 33 -46 hvcurveto
          -8 -29 callgsubr
          365 -1301 -95 callsubr
          -94 callsubr
        </CharString>
        <CharString name="Adotaccent">
          1406 699 -40 callsubr
          512 -1343 -95 callsubr
          -94 callsubr
        </CharString>
        <CharString name="Adotbelow">
          2 callsubr
          66 callsubr
          -209 -784 -74 callsubr
          -68 callsubr
        </CharString>
        <CharString name="Adotmacron">
          1406 435 67 callgsubr
          51 39 34 45 43 -39 35 -51 -50 -39 -35 -43 -45 39 -34 50 hvcurveto
          512 -1295 -95 callsubr
          -94 callsubr
        </CharString>
        <CharString name="Agrave">
          1406 748 -78 callgsubr
          762 -1570 -95 callsubr
          -94 callsubr
        </CharString>
        <CharString name="Ahookabove">
          1406 720 1878 rmoveto
          -88 -41 callgsubr
          12 callgsubr
          -66 51 -104 vhcurveto
          491 -1623 -95 callsubr
          -94 callsubr
        </CharString>
        <CharString name="Ainvertedbreve">
          1406 699 32 callsubr
          2 callgsubr
          512 -1633 -95 callsubr
          -94 callsubr
        </CharString>
        <CharString name="Alphagreek">
          2 callsubr
          -94 callsubr
        </CharString>
        <CharString name="Alphatonosgreek">
          2 callsubr
          552 59 vlineto
          -116 16 -32 28 -56 152 rrcurveto
          -948 830 95 callgsubr
          218 -502 rmoveto
          224 647 229 -647 rlineto
          endchar
        </CharString>
        <CharString name="Amacron">
          1406 446 138 callsubr
          765 -1477 -95 callsubr
          -94 callsubr
        </CharString>
        <CharString name="Aogonek">
          2 callsubr
          263 -27 callgsubr
          232 59 hlineto
          -116 16 -32 28 -56 152 rrcurveto
          -797 328 rmoveto
          224 647 229 -647 rlineto
          endchar
        </CharString>
        <CharString name="Aring">
          1406 465 1743 rmoveto
          -108 107 -72 127 128 107 72 108 108 -107 73 -128 -128 -106 4 callgsubr
          610 -1488 -95 callsubr
          -94 callsubr
        </CharString>
        <CharString name="Aringacute">
          1406 963 1819 rmoveto
          116 vlineto
          -527 -137 rlineto
          -55 vlineto
          295 38 callgsubr
          -74 -38 -59 -59 74 -39 111 hvcurveto
          61 50 rmoveto
          -56 hlineto
          -41 -24 19 29 28 24 19 41 hvcurveto
          56 hlineto
          43 22 -19 -28 -29 -22 -19 -43 hvcurveto
          484 -1310 -95 callsubr
          -94 callsubr
        </CharString>
        <CharString name="Aringbelow">
          2 callsubr
          66 callsubr
          -468 -881 rmoveto
          -108 118 -72 141 141 119 72 108 108 -118 72 -142 -141 -118 -72 -108 vhcurveto
          150 hmoveto
          69 46 47 63 63 47 -47 -69 -70 -47 -46 -63 -63 -46 47 69 vhcurveto
          endchar
        </CharString>
        <CharString name="Atilde">
          1406 812 166 callsubr
          -6 callgsubr
          399 -1320 -95 callsubr
          -94 callsubr
        </CharString>
        <CharString name="B">
          1345 1254 416 107 callsubr
        </CharString>
        <CharString name="Bdotaccent">
          1345 680 -40 callsubr
          574 -1182 107 callsubr
        </CharString>
        <CharString name="Bdotbelow">
          205 callsubr
          -341 -599 -74 callsubr
          -68 callsubr
        </CharString>
        <CharString name="Becyrillic">
          1275 1199 418 rmoveto
          239 -189 165 -384 vhcurveto
          -184 553 hlineto
          221 -7 249 -8 75 -43 50 -221 rlinecurve
          54 hlineto
          -13 348 rlineto
          -1014 -67 callsubr
          -107 callsubr
          562 vlineto
          360 213 168 250 hvcurveto
          -232 -5 rmoveto
          -213 -130 -117 -271 -9 vhcurveto
          -124 -3 0 677 124 -4 rlineto
          268 -9 133 -120 -202 vvcurveto
          endchar
        </CharString>
        <CharString name="Betagreek">
          1345 1254 416 107 callsubr
        </CharString>
        <CharString name="Blinebelow">
          205 callsubr
          -602 -752 -51 callsubr
        </CharString>
        <CharString name="C">
          1427 102 727 -6 callsubr
          -24 callsubr
        </CharString>
        <CharString name="Cacute">
          1427 802 -5 callsubr
          -627 -830 -6 callsubr
          -24 callsubr
        </CharString>
        <CharString name="Ccaron">
          1427 1038 -72 callsubr
          5 callsubr
          -1007 -1112 -6 callsubr
          -24 callsubr
        </CharString>
        <CharString name="Ccedilla">
          1427 102 727 rmoveto
          -456 321 -282 391 -15 vhcurveto
          -102 -137 rlineto
          -85 callgsubr
          74 53 callsubr
          -74 callgsubr
          164 callsubr
          186 8 168 56 75 56 13 315 rcurveline
          -42 callgsubr
          -24 callsubr
        </CharString>
        <CharString name="Ccedillaacute">
          1427 802 -5 callsubr
          -627 -830 rmoveto
          -456 321 -282 391 -15 vhcurveto
          -102 -137 rlineto
          -85 callgsubr
          74 53 callsubr
          -74 callgsubr
          164 callsubr
          186 8 168 56 75 56 13 315 rcurveline
          -42 callgsubr
          -24 callsubr
        </CharString>
        <CharString name="Ccircumflex">
          1427 645 89 callsubr
          127 callsubr
          -472 -830 -6 callsubr
          -24 callsubr
        </CharString>
        <CharString name="Cdotaccent">
          1427 832 -40 callsubr
          -730 -871 -6 callsubr
          -24 callsubr
        </CharString>
        <CharString name="Checyrillic">
          1541 1315 -68 callgsubr
          -532 -95 callgsubr
          -559 vlineto
          -34 -89 -109 -17 -119 hhcurveto
          -254 -110 130 259 hvcurveto
          221 vlineto
          86 17 17 137 16 vhcurveto
          59 -524 -95 callgsubr
          -220 vlineto
          -324 202 -154 332 137 132 28 38 94 vhcurveto
          -437 vlineto
          -97 -20 -25 -156 -16 vhcurveto
          -59 554 -97 callgsubr
          endchar
        </CharString>
        <CharString name="Chigreek">
          1371 280 280 56 callsubr
        </CharString>
        <CharString name="D">
          1536 38 callsubr
          endchar
        </CharString>
        <CharString name="Dbar">
          1536 64 703 rmoveto
          162 -520 hlineto
          -89 -18 -19 -144 -16 vhcurveto
          -59 556 vlineto
          439 386 275 470 445 -351 254 -476 hvcurveto
          -554 -67 callsubr
          -484 -162 vlineto
          1142 -49 -61 callgsubr
          rlineto
          634 325 74 -325 598 vlineto
          87 callgsubr
          endchar
        </CharString>
        <CharString name="Dcaron">
          1536 938 -72 callsubr
          5 callsubr
          436 -1094 103 callsubr
          endchar
        </CharString>
        <CharString name="Dcircumflexbelow">
          1536 38 callsubr
          -678 -1187 -50 callsubr
          -23 callsubr
        </CharString>
        <CharString name="Dcommaaccent">
          1536 38 callsubr
          -488 -1202 -65 callsubr
          -36 callsubr
          18 72 callsubr
        </CharString>
        <CharString name="Ddotaccent">
          1536 732 -40 callsubr
          713 -853 103 callsubr
          endchar
        </CharString>
        <CharString name="Ddotbelow">
          1536 38 callsubr
          -479 -929 -74 callsubr
          -68 callsubr
        </CharString>
        <CharString name="Decyrillic">
          1495 1432 75 rmoveto
          -195 1173 hlineto
          97 20 24 155 16 vhcurveto
          59 -1213 -59 vlineto
          158 -19 34 -23 -5 -143 rrcurveto
          -12 -301 -13 -383 -50 -276 -125 -165 rlinecurve
          -153 hlineto
          -8 -386 rlineto
          67 hlineto
          274 64 94 37 247 hhcurveto
          477 hlineto
          257 81 -55 -256 59 hvcurveto
          68 hlineto
          -418 386 rmoveto
          -719 hlineto
          106 163 50 260 13 401 16 470 rcurveline
          534 hlineto
          endchar
        </CharString>
        <CharString name="Deltagreek">
          1301 48 hmoveto
          1205 106 hlineto
          -535 1341 -135 0 -535 -1339 rlineto
          114 42 rmoveto
          428 1096 418 -1096 rlineto
          endchar
        </CharString>
        <CharString name="Djecyrillic">
          1694 -38 callsubr
          -15 callgsubr
          484 vlineto
          38 65 94 23 103 hhcurveto
          226 140 -145 -284 1 hvcurveto
          1 -277 -114 -227 -192 -134 31 -48 rcurveline
          298 150 192 251 309 vvcurveto
          329 -207 171 -295 -148 -120 -37 -45 -75 vhcurveto
          629 78 callgsubr
        </CharString>
        <CharString name="Dlinebelow">
          1536 38 callsubr
          -740 -1082 -17 callsubr
        </CharString>
        <CharString name="Dzecyrillic">
          1168 571 -26 97 callsubr
          endchar
        </CharString>
        <CharString name="Dzhecyrillic">
          1607 1382 1261 rmoveto
          89 18 19 143 16 vhcurveto
          59 -531 -59 vlineto
          134 -16 20 -17 -86 vvcurveto
          -1191 -724 1191 vlineto
          86 19 17 135 16 vhcurveto
          59 -56 callsubr
          -107 callsubr
          544 vlineto
          98 23 -25 -285 41 hvcurveto
          68 hlineto
          285 42 21 25 98 hhcurveto
          544 59 hlineto
          -143 16 -18 19 89 vvcurveto
          endchar
        </CharString>
        <CharString name="E">
          1260 1122 1444 -92 callsubr
        </CharString>
        <CharString name="Eacute">
          1260 609 -84 callsubr
          -80 callsubr
          586 -113 -92 callsubr
        </CharString>
        <CharString name="Ebreve">
          1260 640 63 callsubr
          482 -152 -92 callsubr
        </CharString>
        <CharString name="Ecaron">
          1260 846 -72 callsubr
          6 callsubr
          205 -395 -92 callsubr
        </CharString>
        <CharString name="Ecedilla">
          1260 619 -474 28 callsubr
          -3 hhcurveto
          75 109 rlineto
          3 467 vlineto
          -44 callsubr
          -29 callsubr
          -14 352 rlineto
          -22 callsubr
          563 vlineto
          -122 -163 112 callsubr
        </CharString>
        <CharString name="Ecedillabreve">
          1260 640 63 callsubr
          -21 -2070 28 callsubr
          -3 hhcurveto
          75 109 rlineto
          3 467 vlineto
          -44 callsubr
          -29 callsubr
          -14 352 rlineto
          -22 callsubr
          563 vlineto
          -122 -163 112 callsubr
        </CharString>
        <CharString name="Ecircumflex">
          1260 453 -60 callsubr
          -15 callsubr
          740 -113 -92 callsubr
        </CharString>
        <CharString name="Ecircumflexacute">
          1260 904 1814 42 callsubr
          -245 vmoveto
          8 callsubr
          746 -104 -92 callsubr
        </CharString>
        <CharString name="Ecircumflexbelow">
          1260 1122 1444 rmoveto
          -22 callsubr
          1104 vlineto
          -44 callsubr
          -29 callsubr
          -687 -1551 161 callsubr
        </CharString>
        <CharString name="Ecircumflexdotbelow">
          1260 453 -60 callsubr
          -15 callsubr
          740 -113 rmoveto
          -22 callsubr
          1104 vlineto
          -44 callsubr
          -29 callsubr
          -487 -1293 -43 callsubr
        </CharString>
        <CharString name="Ecircumflexgrave">
          1260 376 137 callsubr
          8 callsubr
          746 -104 -92 callsubr
        </CharString>
        <CharString name="Ecircumflexhookabove">
          1260 858 206 callsubr
          746 -104 -92 callsubr
        </CharString>
        <CharString name="Ecircumflextilde">
          1260 754 153 callsubr
          -69 -48 -107 -54 callgsubr
          -7 -13 -44 callgsubr
          -378 -269 rmoveto
          8 callsubr
          746 -104 -92 callsubr
        </CharString>
        <CharString name="Ecyrillic">
          1452 102 727 -6 callsubr
          -301 -200 274 368 -16 hvcurveto
          714 -7 0 89 -715 -7 rlineto
          365 8 189 244 319 hhcurveto
          -22 callgsubr
        </CharString>
        <CharString name="Edblgrave">
          1260 431 115 callsubr
          278 -112 -92 callsubr
        </CharString>
        <CharString name="Edieresis">
          1260 476 -42 callsubr
          317 -152 -92 callsubr
        </CharString>
        <CharString name="Edotaccent">
          1260 640 -55 callsubr
          482 -154 -92 callsubr
        </CharString>
        <CharString name="Edotbelow">
          1260 1122 1444 rmoveto
          -22 callsubr
          1104 vlineto
          -44 callsubr
          -29 callsubr
          -487 -1293 -43 callsubr
        </CharString>
        <CharString name="Efcyrillic">
          1829 77 718 rmoveto
          -309 306 -185 428 -12 vhcurveto
          -42 vlineto
          -97 -20 -24 -155 -16 vhcurveto
          -59 557 59 vlineto
          -155 16 -20 24 97 vvcurveto
          42 vlineto
          437 12 297 186 310 vvcurveto
          301 -266 199 -468 12 vhcurveto
          42 vlineto
          97 20 24 155 16 vhcurveto
          59 -557 -59 vlineto
          155 -16 20 -24 -97 vvcurveto
          -42 vlineto
          -477 -12 -257 -200 -302 vvcurveto
          233 8 rmoveto
          221 136 192 365 14 vhcurveto
          -862 vlineto
          -343 15 -158 195 225 vvcurveto
          1210 -3 rmoveto
          -224 -153 -193 -349 -15 vhcurveto
          862 vlineto
          359 -15 143 -193 -222 vvcurveto
          endchar
        </CharString>
        <CharString name="Egrave">
          1260 688 31 callsubr
          733 -381 -92 callsubr
        </CharString>
        <CharString name="Ehookabove">
          1260 661 79 callsubr
          125 callsubr
          461 -434 -92 callsubr
        </CharString>
        <CharString name="Einvertedbreve">
          1260 639 32 callsubr
          119 callsubr
          483 -444 -92 callsubr
        </CharString>
        <CharString name="Elcyrillic">
          1485 20 callgsubr
          524 -1186 hlineto
          -89 -20 -19 -142 -16 vhcurveto
          -59 540 26 callgsubr
          -1191 -59 vlineto
          159 -18 32 -32 -14 callgsubr
          endchar
        </CharString>
        <CharString name="Emacron">
          1260 387 7 callsubr
          735 -288 -92 callsubr
        </CharString>
        <CharString name="Emacronacute">
          1260 904 -47 callsubr
          47 callgsubr
          747 -229 -92 callsubr
        </CharString>
        <CharString name="Emacrongrave">
          1260 376 66 callgsubr
          747 -229 -92 callsubr
        </CharString>
        <CharString name="Emcyrillic">
          1837 464 1444 58 callsubr
        </CharString>
        <CharString name="Encyrillic">
          3 callsubr
          -63 callsubr
          -54 callsubr
          -46 callsubr
        </CharString>
        <CharString name="Eogonek">
          1260 1010 -485 rmoveto
          78 66 32 43 31 hvcurveto
          -1 60 rlineto
          -17 -17 -31 -14 -35 hhcurveto
          -76 -55 79 107 76 21 74 36 45 hvcurveto
          141 hlineto
          -44 callsubr
          -29 callsubr
          -14 352 rlineto
          -22 callsubr
          905 vlineto
          -93 -85 -64 -105 -105 vvcurveto
          -118 87 -72 111 vhcurveto
          endchar
        </CharString>
        <CharString name="Epsilongreek">
          1260 1122 1444 -92 callsubr
        </CharString>
        <CharString name="Epsilontonosgreek">
          1536 1399 1444 rmoveto
          -1059 -59 hlineto
          52 callsubr
          -49 callgsubr
          1105 vlineto
          16 395 rlineto
          -54 hlineto
          -52 -270 -72 -36 -294 -11 rrcurveto
          -271 -9 0 637 292 -3 92 -1 25 -37 29 -164 rlinecurve
          52 477 -52 hlineto
          -34 -166 -23 -34 -89 -1 rrcurveto
          -292 -3 0 601 258 -8 250 -9 81 -49 50 -217 rlinecurve
          55 hlineto
          -1344 -7 -25 callsubr
        </CharString>
        <CharString name="Ercyrillic">
          1289 1197 1021 60 callsubr
        </CharString>
        <CharString name="Ereversedcyrillic">
          1459 130 99 rmoveto
          -65 87 198 -60 191 hhcurveto
          413 337 281 486 456 -314 273 -433 -215 -171 -51 -63 -84 hvcurveto
          -13 -292 rlineto
          55 hlineto
          226 56 143 95 218 hhcurveto
          309 195 -237 -372 15 hvcurveto
          -710 7 0 -89 710 7 rlineto
          -373 -10 -208 -269 -305 hhcurveto
          -204 -160 78 253 -58 hvcurveto
          -55 hlineto
          endchar
        </CharString>
        <CharString name="Escyrillic">
          1427 102 727 -6 callsubr
          -24 callsubr
        </CharString>
        <CharString name="Etagreek">
          3 callsubr
          -63 callsubr
          -54 callsubr
          -46 callsubr
        </CharString>
        <CharString name="Etatonosgreek">
          1894 718 178 rmoveto
          523 734 -523 vlineto
          -86 -16 -17 -138 -16 vhcurveto
          -59 532 26 callgsubr
          -532 -95 callgsubr
          -490 -734 489 vlineto
          86 20 18 135 15 vhcurveto
          60 -533 -59 vlineto
          52 callsubr
          -49 callgsubr
          533 59 vlineto
          -135 16 -20 17 86 vvcurveto
          -650 907 -25 callsubr
        </CharString>
        <CharString name="Etilde">
          1260 752 106 callsubr
          370 -131 -92 callsubr
        </CharString>
        <CharString name="Etildebelow">
          1260 1122 1444 rmoveto
          -22 callsubr
          1104 vlineto
          -44 callsubr
          -29 callsubr
          -379 -1504 rmoveto
          84 71 64 169 -2 hvcurveto
          -63 hlineto
          -89 -4 -22 -29 -38 -62 callgsubr
          -54 hhcurveto
          -84 -52 callgsubr
          38 hhcurveto
          27 23 -13 -21 28 hvcurveto
          28 -22 rlineto
          -33 46 39 -24 52 hhcurveto
          endchar
        </CharString>
        <CharString name="F">
          1152 1089 1444 rmoveto
          -1025 -67 callsubr
          -107 callsubr
          -21 callsubr
          209 callsubr
        </CharString>
        <CharString name="Fdotaccent">
          1152 629 -40 callsubr
          460 -154 rmoveto
          -1025 -67 callsubr
          -107 callsubr
          -21 callsubr
          209 callsubr
        </CharString>
        <CharString name="G">
          1544 102 727 -10 callsubr
        </CharString>
        <CharString name="Gacute">
          1544 796 -5 callsubr
          -621 -830 -10 callsubr
        </CharString>
        <CharString name="Gammagreek">
          1142 1074 1444 rmoveto
          -1010 -67 callsubr
          -107 callsubr
          -21 callsubr
          1178 vlineto
          209 -6 252 -8 80 -48 48 -217 rlinecurve
          55 hlineto
          endchar
        </CharString>
        <CharString name="Gbreve">
          1544 826 1596 rmoveto
          162 139 callsubr
          154 callsubr
          -724 -869 -10 callsubr
        </CharString>
        <CharString name="Gcaron">
          1544 1032 -72 callsubr
          5 callsubr
          -1001 -1112 -10 callsubr
        </CharString>
        <CharString name="Gcircumflex">
          1544 639 89 callsubr
          127 callsubr
          -466 -830 -10 callsubr
        </CharString>
        <CharString name="Gcommaaccent">
          1544 102 727 rmoveto
          -467 338 -286 408 200 196 57 82 113 vhcurveto
          384 vlineto
          91 16 16 147 14 vhcurveto
          59 -542 -59 vlineto
          162 -15 16 -15 -91 vvcurveto
          -362 vlineto
          -48 -65 -102 -28 -123 hhcurveto
          -318 -57 callgsubr
          -24 callgsubr
          735 -1201 -65 callsubr
          124 callsubr
        </CharString>
        <CharString name="Gdotaccent">
          1544 826 -40 callsubr
          -724 -871 -10 callsubr
        </CharString>
        <CharString name="Geacutecyrillic">
          1142 585 -84 callsubr
          -80 callsubr
          562 -113 rmoveto
          -1010 -67 callsubr
          -107 callsubr
          -21 callsubr
          29 callgsubr
        </CharString>
        <CharString name="Gecyrillic">
          1142 1074 1444 rmoveto
          -1010 -67 callsubr
          -107 callsubr
          -21 callsubr
          29 callgsubr
        </CharString>
        <CharString name="Germandbls">
          1429 442 hmoveto
          1375 vlineto
          219 -8 rlineto
          290 -10 123 -123 -163 vvcurveto
          -140 -86 -96 -165 -28 vhcurveto
          -124 vlineto
          204 -54 123 -127 -186 vvcurveto
          -169 -95 -91 -127 -139 -104 108 195 -36 vhcurveto
          -55 -303 hlineto
          -41 57 126 -41 149 hhcurveto
          202 211 132 259 222 -123 163 -203 68 hvcurveto
          146 20 121 104 157 vvcurveto
          210 -173 135 -387 vhcurveto
          -656 -67 callsubr
          -107 callsubr
          vlineto
          endchar
        </CharString>
        <CharString name="Geupturncyrillic">
          1112 1046 1369 rmoveto
          10 386 rlineto
          -68 hlineto
          -282 -78 -44 -29 -217 hhcurveto
          -585 -67 callsubr
          -107 callsubr
          -21 callsubr
          1172 vlineto
          endchar
        </CharString>
        <CharString name="Gmacron">
          1544 573 138 callsubr
          -471 -1005 -10 callsubr
        </CharString>
        <CharString name="H">
          3 callsubr
          -63 callsubr
          -54 callsubr
          -46 callsubr
        </CharString>
        <CharString name="Hacyrillic">
          1371 280 280 56 callsubr
        </CharString>
        <CharString name="Hardsigncyrillic">
          1531 1442 444 rmoveto
          275 -208 149 -355 vhcurveto
          -196 380 hlineto
          97 21 24 156 16 vhcurveto
          59 -797 vlineto
          -13 -348 rlineto
          55 hlineto
          40 225 65 41 249 9 rrcurveto
          8 -1175 hlineto
          -97 -20 -24 -155 -16 vhcurveto
          -59 600 vlineto
          363 187 205 239 hvcurveto
          -233 -11 rmoveto
          -216 -120 -134 -257 -8 vhcurveto
          -149 -4 rlineto
          723 136 vlineto
          251 -2 139 -131 -228 vvcurveto
          endchar
        </CharString>
        <CharString name="Hbar">
          3 callsubr
          866 161 75 -161 137 28 callgsubr
          -142 -734 141 -32 callsubr
          -56 callsubr
          -137 -162 -75 162 -866 vlineto
          -89 -18 -19 -144 -16 vhcurveto
          -59 -35 callsubr
          598 vmoveto
          273 734 -273 vlineto
          endchar
        </CharString>
        <CharString name="Hbrevebelow">
          3 callsubr
          -63 callsubr
          -54 callsubr
          -35 callsubr
          369 -625 rmoveto
          170 94 125 126 16 -1 16 -2 19 callgsubr
          -1 -16 -16 vvcurveto
          -126 95 -125 170 vhcurveto
          endchar
        </CharString>
        <CharString name="Hcaron">
          1617 1017 -72 callsubr
          6 callsubr
          -646 -1661 77 callsubr
          -63 callsubr
          -54 callsubr
          -46 callsubr
        </CharString>
        <CharString name="Hcedilla">
          3 callsubr
          -63 callsubr
          -54 callsubr
          241 vlineto
          -120 -163 rlineto
          -85 callgsubr
          73 57 -29 -57 -56 -52 -30 -67 -52 -56 16 24 -32 hvcurveto
          -59 vlineto
          -42 38 71 -28 89 hhcurveto
          6 callgsubr
          215 59 hlineto
          -135 16 -19 17 86 vvcurveto
          endchar
        </CharString>
        <CharString name="Hcircumflex">
          1617 624 -60 callsubr
          -15 callsubr
          -111 -1379 77 callsubr
          -63 callsubr
          -54 callsubr
          -46 callsubr
        </CharString>
        <CharString name="Hdieresis">
          1617 647 -42 callsubr
          -534 -1418 77 callsubr
          -63 callsubr
          -54 callsubr
          -46 callsubr
        </CharString>
        <CharString name="Hdotaccent">
          1617 811 -55 callsubr
          -369 -1420 77 callsubr
          -63 callsubr
          -54 callsubr
          -46 callsubr
        </CharString>
        <CharString name="Hdotbelow">
          3 callsubr
          -63 callsubr
          -54 callsubr
          -35 callsubr
          369 -379 -43 callsubr
        </CharString>
        <CharString name="I">
          667 442 -12 callsubr
          -100 callsubr
          -107 callsubr
          -81 callsubr
        </CharString>
        <CharString name="IAcyrillic">
          1359 157 1034 rmoveto
          -206 147 -116 182 -37 vhcurveto
          -216 -342 -136 -216 -33 -39 -72 -23 rlinecurve
          -55 258 vlineto
          398 644 rlineto
          218 -466 hlineto
          -85 -17 -17 -137 -17 vhcurveto
          -59 531 59 vlineto
          -141 17 -20 19 88 vvcurveto
          1077 vlineto
          90 20 19 141 15 vhcurveto
          60 -588 vlineto
          -340 -195 -155 -255 hvcurveto
          224 15 rmoveto
          204 124 110 251 8 vhcurveto
          147 4 0 -663 -144 1 rlineto
          -226 3 -152 122 211 vvcurveto
          endchar
        </CharString>
        <CharString name="IJ">
          1335 442 -12 callsubr
          -100 callsubr
          -107 callsubr
          36 callsubr
          218 callsubr
        </CharString>
        <CharString name="IJacute">
          1335 303 -84 callsubr
          -80 callsubr
          739 hmoveto
          296 268 rlineto
          7 47 callsubr
          -454 -1374 -82 callsubr
          -100 callsubr
          -107 callsubr
          36 callsubr
          218 callsubr
        </CharString>
        <CharString name="IUcyrillic">
          2254 442 178 rmoveto
          523 272 vlineto
          -459 10 349 -268 358 hhcurveto
          437 283 328 420 1 hvcurveto
          472 1 -356 276 -363 hhcurveto
          -419 -277 -299 -395 -23 hvcurveto
          -273 489 hlineto
          86 19 18 135 15 vhcurveto
          60 -56 callsubr
          -107 callsubr
          -35 callsubr
          1004 -119 rmoveto
          -306 -188 303 378 361 135 284 332 305 191 -303 -378 -1 hvcurveto
          -361 -1 -136 -284 -331 hhcurveto
          endchar
        </CharString>
        <CharString name="Iacute">
          667 303 -84 callsubr
          -80 callsubr
          212 -1374 -82 callsubr
          -100 callsubr
          -107 callsubr
          -81 callsubr
        </CharString>
        <CharString name="Ibreve">
          667 334 63 callsubr
          108 -1413 -82 callsubr
          -100 callsubr
          -107 callsubr
          -81 callsubr
        </CharString>
        <CharString name="Icaron">
          667 539 -11 callgsubr
          -168 -1656 -82 callsubr
          -100 callsubr
          -107 callsubr
          -81 callsubr
        </CharString>
        <CharString name="Icircumflex">
          667 146 1557 rmoveto
          198 148 194 -148 89 callgsubr
          367 -1374 -82 callsubr
          -100 callsubr
          -107 callsubr
          -81 callsubr
        </CharString>
        <CharString name="Icyrillic">
          667 442 -12 callsubr
          -100 callsubr
          -107 callsubr
          -81 callsubr
        </CharString>
        <CharString name="Idblgrave">
          667 125 115 callsubr
          -96 -1373 -82 callsubr
          -100 callsubr
          -107 callsubr
          -81 callsubr
        </CharString>
        <CharString name="Idieresis">
          667 170 -42 callsubr
          -57 -1413 -82 callsubr
          -100 callsubr
          -107 callsubr
          -81 callsubr
        </CharString>
        <CharString name="Idieresisacute">
          667 598 -47 callsubr
          16 callsubr
          117 -203 9 callsubr
          -8 -29 callgsubr
          309 hmoveto
          47 35 31 41 40 -35 33 -47 hvcurveto
          -8 -29 callgsubr
          -38 -1373 -82 callsubr
          -100 callsubr
          -107 callsubr
          -81 callsubr
        </CharString>
        <CharString name="Idotaccent">
          667 334 -55 callsubr
          108 -1415 -82 callsubr
          -100 callsubr
          -107 callsubr
          -81 callsubr
        </CharString>
        <CharString name="Idotbelow">
          667 442 -12 callsubr
          -100 callsubr
          -107 callsubr
          36 callsubr
          -110 -384 -74 callsubr
          -96 callgsubr
        </CharString>
        <CharString name="Iecyrillic">
          1260 1122 1444 -92 callsubr
        </CharString>
        <CharString name="Igrave">
          667 382 -78 callgsubr
          359 -1642 -82 callsubr
          -100 callsubr
          -107 callsubr
          -81 callsubr
        </CharString>
        <CharString name="Ihookabove">
          667 355 79 callsubr
          52 hhcurveto
          64 38 -29 -44 -48 -45 -41 -82 -56 hvcurveto
          63 hlineto
          144 61 51 55 68 vvcurveto
          73 -66 51 -103 vhcurveto
          87 -1695 -82 callsubr
          -100 callsubr
          -107 callsubr
          -81 callsubr
        </CharString>
        <CharString name="Iicyrillic">
          1640 442 178 rmoveto
          47 vlineto
          757 880 rlineto
          -927 170 callsubr
          -63 callsubr
          -47 vlineto
          -757 -880 rlineto
          926 -32 callsubr
          -56 callsubr
          -107 callsubr
          -46 callsubr
        </CharString>
        <CharString name="Iinvertedbreve">
          667 333 32 callsubr
          119 callsubr
          109 -1705 -82 callsubr
          -100 callsubr
          -107 callsubr
          -81 callsubr
        </CharString>
        <CharString name="Iishortcyrillic">
          1640 821 1599 rmoveto
          25 callgsubr
          3 0 1 4 hvcurveto
          -51 -39 -70 -30 -89 hhcurveto
          -89 -71 30 51 -38 hvcurveto
          -1 4 4 0 4 hhcurveto
          47 39 40 50 53 -39 41 -55 -57 -41 -40 -68 -120 111 -107 182 hvcurveto
          -379 -1421 rmoveto
          47 vlineto
          757 880 rlineto
          -927 170 callsubr
          -63 callsubr
          -47 vlineto
          -757 -880 rlineto
          926 -32 callsubr
          -56 callsubr
          -107 callsubr
          -46 callsubr
        </CharString>
        <CharString name="Imacron">
          667 81 7 callsubr
          361 -1549 -82 callsubr
          -100 callsubr
          -107 callsubr
          -81 callsubr
        </CharString>
        <CharString name="Iocyrillic">
          1260 476 -42 callsubr
          317 -152 -92 callsubr
        </CharString>
        <CharString name="Iogonek">
          667 442 -12 callsubr
          -100 callsubr
          -107 callsubr
          256 -27 callgsubr
          226 59 hlineto
          -144 16 -17 19 89 vvcurveto
          endchar
        </CharString>
        <CharString name="Iotadieresisgreek">
          667 170 -42 callsubr
          -57 -1413 -82 callsubr
          -100 callsubr
          -107 callsubr
          -81 callsubr
        </CharString>
        <CharString name="Iotagreek">
          667 442 -12 callsubr
          -100 callsubr
          -107 callsubr
          -81 callsubr
        </CharString>
        <CharString name="Iotatonosgreek">
          944 718 -68 callgsubr
          -540 -59 vlineto
          52 callsubr
          -49 callgsubr
          540 -97 callgsubr
          -650 902 -25 callsubr
        </CharString>
        <CharString name="Itilde">
          667 446 166 callsubr
          -102 callgsubr
          -40 25 -54 hhcurveto
          -88 -73 -67 -176 2 hvcurveto
          67 hlineto
          91 4 23 29 39 hhcurveto
          27 23 -13 -22 30 hvcurveto
          29 -22 rlineto
          -35 47 39 -24 55 hhcurveto
          -4 -1392 -82 callsubr
          -100 callsubr
          -107 callsubr
          -81 callsubr
        </CharString>
        <CharString name="Itildebelow">
          667 442 -12 callsubr
          -100 callsubr
          -107 callsubr
          36 callsubr
          -2 -595 rmoveto
          85 135 callsubr
          -39 -62 callgsubr
          -53 hhcurveto
          -85 -52 callgsubr
          39 -63 callgsubr
          52 hhcurveto
          endchar
        </CharString>
        <CharString name="J">
          667 442 249 rmoveto
          1012 43 callsubr
          -100 callsubr
          45 callsubr
          78 callsubr
        </CharString>
        <CharString name="Jacute">
          667 302 -84 callsubr
          47 callsubr
          213 -1308 rmoveto
          1012 43 callsubr
          -100 callsubr
          45 callsubr
          78 callsubr
        </CharString>
        <CharString name="Jcircumflex">
          667 146 -60 callsubr
          92 callsubr
          367 -1308 rmoveto
          1012 43 callsubr
          -100 callsubr
          45 callsubr
          78 callsubr
        </CharString>
        <CharString name="Jecyrillic">
          667 442 249 rmoveto
          1012 43 callsubr
          -100 callsubr
          45 callsubr
          78 callsubr
        </CharString>
        <CharString name="K">
          1360 442 178 20 callsubr
        </CharString>
        <CharString name="Kaacutecyrillic">
          1360 693 -84 callsubr
          -80 callsubr
          -178 -1379 20 callsubr
        </CharString>
        <CharString name="Kacute">
          1360 693 -84 callsubr
          -80 callsubr
          -178 -1379 20 callsubr
        </CharString>
        <CharString name="Kacyrillic">
          1360 442 178 20 callsubr
        </CharString>
        <CharString name="Kappagreek">
          1360 442 178 20 callsubr
        </CharString>
        <CharString name="Kcaron">
          1360 929 -11 callgsubr
          -558 -1661 20 callsubr
        </CharString>
        <CharString name="Kcommaaccent">
          145 callsubr
          309 -652 -65 callsubr
          124 callsubr
        </CharString>
        <CharString name="Kdotbelow">
          145 callsubr
          319 -379 -43 callsubr
        </CharString>
        <CharString name="Klinebelow">
          145 callsubr
          57 -532 -17 callsubr
        </CharString>
        <CharString name="L">
          30 callsubr
          endchar
        </CharString>
        <CharString name="Lacute">
          1159 306 -84 callsubr
          -80 callsubr
          860 -1557 rmoveto
          0 callsubr
          22 callsubr
          endchar
        </CharString>
        <CharString name="Lambdagreek">
          1383 1183 258 rmoveto
          -422 1188 -137 0 -426 -1205 -51 -143 -40 -26 -109 -13 rlinecurve
          -59 433 59 vlineto
          -160 19 -10 40 44 136 rrcurveto
          323 974 336 -996 44 -133 -48 -23 -126 -17 rlinecurve
          -59 553 59 vlineto
          -108 14 -39 25 -57 160 rrcurveto
          endchar
        </CharString>
        <CharString name="Lcaron">
          1159 872 1108 rmoveto
          163 412 -174 0 -45 -412 rlineto
          277 -1108 rmoveto
          0 callsubr
          22 callsubr
          endchar
        </CharString>
        <CharString name="Lcircumflexbelow">
          30 callsubr
          329 -459 -50 callsubr
          -23 callsubr
        </CharString>
        <CharString name="Lcommaaccent">
          30 callsubr
          520 -474 -65 callsubr
          -36 callsubr
          136 callsubr
          -67 -58 -48 16 23 -35 hvcurveto
          -59 vlineto
          -35 35 71 -29 82 hhcurveto
          endchar
        </CharString>
        <CharString name="Ldot">
          30 callsubr
          815 715 rmoveto
          66 52 50 64 65 -52 50 -66 -18 callsubr
          endchar
        </CharString>
        <CharString name="Ldotbelow">
          30 callsubr
          528 -201 -74 callsubr
          -68 callsubr
        </CharString>
        <CharString name="Ldotbelowmacron">
          1159 84 7 callsubr
          1009 -1732 rmoveto
          0 callsubr
          22 callsubr
          528 -201 -74 callsubr
          -68 callsubr
        </CharString>
        <CharString name="Ljecyrillic">
          2036 20 callgsubr
          453 -1186 hlineto
          -89 -20 -19 -142 -16 vhcurveto
          -59 586 vlineto
          364 186 205 239 275 -208 149 -354 hvcurveto
          -196 380 hlineto
          97 20 24 156 16 vhcurveto
          59 -1134 -59 vlineto
          159 -19 32 -31 -14 callgsubr
          1701 324 rmoveto
          -216 -119 -134 -258 -8 vhcurveto
          -148 -4 rlineto
          723 136 vlineto
          252 -2 137 -131 -228 vvcurveto
          endchar
        </CharString>
        <CharString name="Llinebelow">
          30 callsubr
          267 -354 -17 callsubr
        </CharString>
        <CharString name="Lslash">
          1159 64 613 rmoveto
          162 50 rlineto
          -480 vlineto
          -89 -18 -19 -144 -16 vhcurveto
          -59 1029 vlineto
          0 callsubr
          rrcurveto
          -216 -7 0 661 365 114 0 80 -365 -113 rlineto
          438 vlineto
          96 91 callgsubr
          -517 vlineto
          -162 -51 rlineto
          endchar
        </CharString>
        <CharString name="M">
          1837 464 1444 58 callsubr
        </CharString>
        <CharString name="Macute">
          1837 886 -84 callsubr
          -80 callsubr
          -349 -113 58 callsubr
        </CharString>
        <CharString name="Mdotaccent">
          1837 917 -55 callsubr
          -453 -154 58 callsubr
        </CharString>
        <CharString name="Mdotbelow">
          1837 464 1444 rmoveto
          -388 -59 hlineto
          131 -17 25 -28 -3 -106 rrcurveto
          -31 -1007 -5 -124 -17 -27 -140 -17 rlinecurve
          -59 424 59 vlineto
          -143 18 -17 26 1 128 rrcurveto
          8 1029 502 -1260 96 0 74 201 408 1058 27 -1079 2 -88 -19 -18 -137 -15 rlinecurve
          -59 530 59 vlineto
          -141 15 -17 19 -3 90 rrcurveto
          -29 1078 -2 89 21 20 139 15 rlinecurve
          59 -397 vlineto
          -431 -1200 rlineto
          -74 -445 -74 callsubr
          -68 callsubr
        </CharString>
        <CharString name="Mugreek">
          1837 464 1444 58 callsubr
        </CharString>
        <CharString name="N">
          1526 -34 callsubr
          endchar
        </CharString>
        <CharString name="Nacute">
          1526 748 -5 callsubr
          -273 -113 21 callsubr
          endchar
        </CharString>
        <CharString name="Ncaron">
          1526 984 -72 callsubr
          5 callsubr
          -653 -395 21 callsubr
          endchar
        </CharString>
        <CharString name="Ncircumflexbelow">
          1526 -34 callsubr
          -684 -697 161 callsubr
        </CharString>
        <CharString name="Ncommaaccent">
          1526 -34 callsubr
          -493 -712 110 callsubr
        </CharString>
        <CharString name="Ndotaccent">
          1526 778 -40 callsubr
          -376 -154 21 callsubr
          endchar
        </CharString>
        <CharString name="Ndotbelow">
          1526 -34 callsubr
          -484 -439 -43 callsubr
        </CharString>
        <CharString name="Ngrave">
          1526 827 -78 callgsubr
          -126 -381 21 callsubr
          endchar
        </CharString>
        <CharString name="Njecyrillic">
          2114 442 178 rmoveto
          565 608 -565 vlineto
          -86 -19 -17 -134 -16 vhcurveto
          -59 577 vlineto
          364 186 193 226 259 -207 140 -355 hvcurveto
          -196 430 hlineto
          97 21 24 155 16 vhcurveto
          59 -545 -60 vlineto
          134 -15 19 -18 -86 vvcurveto
          -446 -608 446 -32 callsubr
          -56 callsubr
          -107 callsubr
          -35 callsubr
          1350 230 rmoveto
          -201 -120 -124 -258 -8 vhcurveto
          -148 -4 0 674 137 -2 rlineto
          251 -1 138 -122 -212 vvcurveto
          endchar
        </CharString>
        <CharString name="Nlinebelow">
          1526 -34 callsubr
          -745 -592 -51 callsubr
        </CharString>
        <CharString name="Ntilde">
          1526 891 166 callsubr
          -6 callgsubr
          -489 -131 21 callsubr
          endchar
        </CharString>
        <CharString name="Nugreek">
          1526 -34 callsubr
          endchar
        </CharString>
        <CharString name="O">
          15 callsubr
          46 callsubr
          -105 callsubr
          -99 callsubr
        </CharString>
        <CharString name="OE">
          2067 102 713 rmoveto
          -408 307 -332 428 vhcurveto
          159 89 27 150 hhcurveto
          741 hlineto
          -44 callsubr
          -51 -270 -72 -36 -293 -11 rrcurveto
          -270 -23 callgsubr
          257 -8 249 -9 82 -49 50 -217 rlinecurve
          54 hlineto
          -12 352 rlineto
          -697 hlineto
          -171 -59 27 -158 hhcurveto
          -448 -297 -329 -429 hvcurveto
          241 14 rmoveto
          370 180 291 338 67 61 -9 -23 47 vhcurveto
          -1272 vlineto
          -19 -50 -65 -9 -65 hhcurveto
          -323 -190 292 379 hvcurveto
          endchar
        </CharString>
        <CharString name="Oacute">
          1653 788 -84 callsubr
          -80 callsubr
          -613 -835 -103 callsubr
          -105 callsubr
          -99 callsubr
        </CharString>
        <CharString name="Obreve">
          1653 819 63 callsubr
          -717 -874 -103 callsubr
          -105 callsubr
          -99 callsubr
        </CharString>
        <CharString name="Ocaron">
          1653 1025 -72 callsubr
          6 callsubr
          -994 -1117 -103 callsubr
          -105 callsubr
          -99 callsubr
        </CharString>
        <CharString name="Ocircumflex">
          1653 632 -60 callsubr
          -15 callsubr
          -459 -835 -103 callsubr
          -105 callsubr
          -99 callsubr
        </CharString>
        <CharString name="Ocircumflexacute">
          1653 1083 1814 42 callsubr
          -245 vmoveto
          8 callsubr
          -453 -826 -103 callsubr
          -105 callsubr
          -99 callsubr
        </CharString>
        <CharString name="Ocircumflexdotbelow">
          1653 632 -60 callsubr
          -15 callsubr
          -459 -835 -103 callsubr
          -105 callsubr
          118 callsubr
          70 callsubr
          490 -941 -74 callsubr
          -68 callsubr
        </CharString>
        <CharString name="Ocircumflexgrave">
          1653 555 137 callsubr
          8 callsubr
          -453 -826 -103 callsubr
          -105 callsubr
          -99 callsubr
        </CharString>
        <CharString name="Ocircumflexhookabove">
          1653 1037 206 callsubr
          -453 -826 -103 callsubr
          -105 callsubr
          -99 callsubr
        </CharString>
        <CharString name="Ocircumflextilde">
          1653 933 153 callsubr
          -69 -48 -107 -54 callgsubr
          -7 -13 -44 callgsubr
          -378 -269 rmoveto
          8 callsubr
          -453 -826 -103 callsubr
          -105 callsubr
          -99 callsubr
        </CharString>
        <CharString name="Ocyrillic">
          15 callsubr
          46 callsubr
          -105 callsubr
          -99 callsubr
        </CharString>
        <CharString name="Odblgrave">
          1653 610 115 callsubr
          -921 -834 -103 callsubr
          -105 callsubr
          -99 callsubr
        </CharString>
        <CharString name="Odieresis">
          1653 655 -42 callsubr
          -882 -874 -103 callsubr
          -105 callsubr
          -99 callsubr
        </CharString>
        <CharString name="Odieresismacron">
          69 callgsubr
          118 -343 9 callsubr
          -41 callsubr
          40 callsubr
          -864 -834 -103 callsubr
          -105 callsubr
          -99 callsubr
        </CharString>
        <CharString name="Odotaccent">
          1653 819 -55 callsubr
          -717 -876 -103 callsubr
          -105 callsubr
          -99 callsubr
        </CharString>
        <CharString name="Odotaccentmacron">
          1653 554 1789 rmoveto
          529 88 -529 hlineto
          265 -327 rmoveto
          50 40 34 45 43 -40 35 -50 -51 -39 -35 -43 -45 39 -34 51 hvcurveto
          -717 -828 -103 callsubr
          -105 callsubr
          -99 callsubr
        </CharString>
        <CharString name="Odotbelow">
          15 callsubr
          46 callsubr
          -105 callsubr
          118 callsubr
          70 callsubr
          490 -941 -74 callsubr
          -68 callsubr
        </CharString>
        <CharString name="Ograve">
          1653 867 31 callsubr
          -466 -1103 -103 callsubr
          -105 callsubr
          -99 callsubr
        </CharString>
        <CharString name="Ohookabove">
          1653 840 79 callsubr
          125 callsubr
          -738 -1156 -103 callsubr
          -105 callsubr
          -99 callsubr
        </CharString>
        <CharString name="Ohorn">
          1660 102 722 -103 callsubr
          -105 callsubr
          61 callsubr
        </CharString>
        <CharString name="Ohornacute">
          1660 789 -84 callsubr
          47 callsubr
          -614 -835 -103 callsubr
          -105 callsubr
          61 callsubr
        </CharString>
        <CharString name="Ohorndotbelow">
          1660 102 722 -103 callsubr
          -105 callsubr
          316 -165 236 -233 119 vhcurveto
          -4 22 24 -3 25 hhcurveto
          175 122 57 127 86 -56 80 -73 48 hvcurveto
          -59 hlineto
          19 -27 15 -57 -50 vvcurveto
          -123 -73 -81 -151 vhcurveto
          -90 -98 24 -128 -82 callgsubr
          70 callsubr
          484 -941 -74 callsubr
          -96 callgsubr
        </CharString>
        <CharString name="Ohorngrave">
          1660 868 1557 rmoveto
          73 hlineto
          -149 275 rlineto
          -222 -7 hlineto
          -468 -1103 -103 callsubr
          -105 callsubr
          61 callsubr
        </CharString>
        <CharString name="Ohornhookabove">
          1660 841 1878 rmoveto
          -88 -41 callgsubr
          12 callgsubr
          -67 51 -103 vhcurveto
          -739 -1156 -103 callsubr
          -105 callsubr
          61 callsubr
        </CharString>
        <CharString name="Ohorntilde">
          1660 932 1575 rmoveto
          88 73 67 176 -2 hvcurveto
          -67 hlineto
          -91 -4 -23 -29 -38 hhcurveto
          -28 -23 13 22 -30 hvcurveto
          -29 22 rlineto
          34 -46 -40 -103 callgsubr
          42 callgsubr
          46 40 -24 54 hhcurveto
          -830 -853 -103 callsubr
          -105 callsubr
          61 callsubr
        </CharString>
        <CharString name="Ohungarumlaut">
          1653 719 -21 callgsubr
          -1135 -1110 -103 callsubr
          -105 callsubr
          -99 callsubr
        </CharString>
        <CharString name="Oinvertedbreve">
          1653 818 32 callsubr
          119 callsubr
          -716 -1166 -103 callsubr
          -105 callsubr
          -99 callsubr
        </CharString>
        <CharString name="Omacron">
          68 callgsubr
          46 callsubr
          -105 callsubr
          -99 callsubr
        </CharString>
        <CharString name="Omacronacute">
          1653 1083 -47 callsubr
          47 callgsubr
          -452 -951 -103 callsubr
          -105 callsubr
          -99 callsubr
        </CharString>
        <CharString name="Omacrongrave">
          1653 555 66 callgsubr
          -452 -951 -103 callsubr
          -105 callsubr
          -99 callsubr
        </CharString>
        <CharString name="Omegagreek">
          1556 82 hmoveto
          588 292 hlineto
          -250 60 callgsubr
          301 189 -222 -331 -272 -140 -210 -235 -59 vhcurveto
          -292 587 -26 callgsubr
          -404 -417 10 callgsubr
          -145 36 -76 175 rrcurveto
          -48 hlineto
          endchar
        </CharString>
        <CharString name="Omegatonosgreek">
          1679 205 hmoveto
          587 292 hlineto
          -249 60 callgsubr
          300 190 -222 -331 -272 -140 -210 -236 -59 vhcurveto
          -292 588 -26 callgsubr
          -405 -416 10 callgsubr
          -146 36 -76 175 rrcurveto
          -47 hlineto
          -88 738 -25 callsubr
        </CharString>
        <CharString name="Omicrongreek">
          15 callsubr
          46 callsubr
          -105 callsubr
          -99 callsubr
        </CharString>
        <CharString name="Omicrontonosgreek">
          1720 169 722 -103 callsubr
          440 286 333 415 466 -357 282 -366 -441 -285 -333 -415 vhcurveto
          -101 363 rmoveto
          190 349 rlineto
          10 -192 vlineto
          -66 -359 rlineto
          410 -345 rmoveto
          355 136 290 334 307 189 -33 callgsubr
          -333 -308 -189 309 372 vhcurveto
          endchar
        </CharString>
        <CharString name="Oogonek">
          15 callsubr
          191 callsubr
        </CharString>
        <CharString name="Oogonekmacron">
          68 callgsubr
          191 callsubr
        </CharString>
        <CharString name="Oslash">
          15 callsubr
          179 callsubr
        </CharString>
        <CharString name="Oslashacute">
          1653 788 -84 callsubr
          -80 callsubr
          -613 -835 rmoveto
          179 callsubr
        </CharString>
        <CharString name="Otilde">
          1653 931 106 callsubr
          -829 -853 -103 callsubr
          -105 callsubr
          -99 callsubr
        </CharString>
        <CharString name="Otildeacute">
          1653 1083 -47 callsubr
          16 callsubr
          378 -202 -7 callsubr
          128 callsubr
          -831 -835 -103 callsubr
          -105 callsubr
          -99 callsubr
        </CharString>
        <CharString name="Otildedieresis">
          1653 672 151 callsubr
          -47 -35 -32 -41 -41 35 -31 47 hvcurveto
          -33 -226 -7 callsubr
          128 callsubr
          -831 -835 -103 callsubr
          -105 callsubr
          -99 callsubr
        </CharString>
        <CharString name="Otildemacron">
          69 callgsubr
          379 -342 -7 callsubr
          128 callsubr
          -831 -835 -103 callsubr
          -105 callsubr
          -99 callsubr
        </CharString>
        <CharString name="P">
          1289 1197 1021 60 callsubr
        </CharString>
        <CharString name="Pacute">
          1289 571 -84 callsubr
          -80 callsubr
          699 -536 60 callsubr
        </CharString>
        <CharString name="Pdotaccent">
          1289 602 -55 callsubr
          595 -577 60 callsubr
        </CharString>
        <CharString name="Pecyrillic">
          1607 1382 183 rmoveto
          1078 vlineto
          89 18 19 143 16 vhcurveto
          59 -1479 86 callsubr
          -107 callsubr
          -35 callsubr
          1191 724 -1191 vlineto
          -86 -20 -17 -134 -16 vhcurveto
          -59 531 59 vlineto
          -143 16 -18 19 89 vvcurveto
          endchar
        </CharString>
        <CharString name="Phigreek">
          1787 92 719 rmoveto
          -322 277 -177 421 -13 vhcurveto
          -10 13 callsubr
          558 11 callsubr
          10 vlineto
          396 14 303 177 328 vvcurveto
          323 -279 175 -420 14 vhcurveto
          10 vlineto
          97 21 24 155 16 vhcurveto
          59 -558 -59 vlineto
          155 -16 20 -24 -97 vvcurveto
          -10 vlineto
          -394 -14 -304 -174 -331 vvcurveto
          1380 -1 rmoveto
          -254 -181 -163 -294 -17 vhcurveto
          878 vlineto
          307 -16 168 -164 -264 vvcurveto
          -1157 10 rmoveto
          254 181 163 294 17 vhcurveto
          -878 vlineto
          -306 16 -169 163 265 vvcurveto
          endchar
        </CharString>
        <CharString name="Pigreek">
          1577 1351 -68 callgsubr
          -1449 86 callsubr
          -107 callsubr
          -35 callsubr
          1191 693 -1191 vlineto
          -86 -19 -17 -135 -16 vhcurveto
          -59 532 -97 callgsubr
          endchar
        </CharString>
        <CharString name="Psigreek">
          1719 963 197 rmoveto
          322 vlineto
          304 10 179 125 45 320 rrcurveto
          35 241 17 125 35 30 92 4 rlinecurve
          59 vlineto
          4 -26 -48 7 -51 hhcurveto
          -130 -68 -52 -181 -27 hvcurveto
          -38 -253 -35 -238 -89 -112 -195 -15 rlinecurve
          672 -32 callsubr
          -515 -60 vlineto
          134 -15 20 -18 -86 vvcurveto
          -672 vlineto
          -196 15 -88 112 -35 238 -38 253 rcurveline
          181 -27 -69 52 -129 hhcurveto
          -51 -49 -7 -4 -26 hvcurveto
          -59 vlineto
          94 -4 34 -30 17 -125 rrcurveto
          34 -241 46 -320 179 -125 304 -10 rlinecurve
          -322 13 callsubr
          557 59 vlineto
          -155 16 -20 25 97 vvcurveto
          endchar
        </CharString>
        <CharString name="Q">
          15 callsubr
          -449 333 -279 352 -19 vhcurveto
          131 -115 rlineto
          -193 222 88 -29 111 hhcurveto
          86 84 27 34 63 hvcurveto
          53 vlineto
          -123 -14 -112 44 -197 155 -88 69 rcurveline
          310 93 190 285 338 vvcurveto
          466 -357 282 -366 -441 -286 -333 -415 vhcurveto
          -31 callgsubr
          333 307 191 -309 -372 -1 vhcurveto
          -355 -1 -136 -290 -333 hhcurveto
          -307 -189 309 372 hvcurveto
          endchar
        </CharString>
        <CharString name="R">
          1324 1185 1054 144 callsubr
          endchar
        </CharString>
        <CharString name="Racute">
          1324 598 -5 callsubr
          660 -503 144 callsubr
          endchar
        </CharString>
        <CharString name="Rcaron">
          1324 834 -72 callsubr
          5 callsubr
          280 -785 144 callsubr
          endchar
        </CharString>
        <CharString name="Rcommaaccent">
          -60 callgsubr
          -261 -1510 -65 callsubr
          124 callsubr
        </CharString>
        <CharString name="Rdblgrave">
          1324 420 -17 callgsubr
          352 -502 144 callsubr
          endchar
        </CharString>
        <CharString name="Rdotaccent">
          1324 628 -40 callsubr
          557 -544 144 callsubr
          endchar
        </CharString>
        <CharString name="Rdotbelow">
          -60 callgsubr
          -251 -1237 -43 callsubr
        </CharString>
        <CharString name="Rdotbelowmacron">
          1324 375 138 callsubr
          810 -678 144 callsubr
          -251 -1237 -43 callsubr
        </CharString>
        <CharString name="Rhogreek">
          1289 1197 1021 60 callsubr
        </CharString>
        <CharString name="Rinvertedbreve">
          1324 628 32 callsubr
          2 callgsubr
          557 -834 144 callsubr
          endchar
        </CharString>
        <CharString name="Rlinebelow">
          -60 callgsubr
          -513 -1390 -17 callsubr
        </CharString>
        <CharString name="S">
          1168 571 -26 97 callsubr
          endchar
        </CharString>
        <CharString name="Sacute">
          1168 576 -84 callsubr
          -80 callsubr
          68 -1583 97 callsubr
          endchar
        </CharString>
        <CharString name="Sacutedotaccent">
          1168 607 1752 rmoveto
          50 40 34 44 44 -40 34 -50 -51 -39 -34 -44 -44 39 -34 51 hvcurveto
          264 -135 42 callsubr
          228 -1567 97 callsubr
          endchar
        </CharString>
        <CharString name="Scaron">
          1168 813 -72 callsubr
          6 callsubr
          -313 -1865 97 callsubr
          endchar
        </CharString>
        <CharString name="Scarondotaccent">
          1168 607 1771 rmoveto
          50 40 34 44 44 -40 35 -50 -51 -39 -35 -44 -44 39 -34 51 hvcurveto
          270 -23 rmoveto
          -270 -94 -270 94 0 -55 249 -151 44 0 248 151 rlineto
          -307 -1719 97 callsubr
          endchar
        </CharString>
        <CharString name="Scedilla">
          1168 540 -474 rmoveto
          164 callsubr
          260 14 202 167 241 vvcurveto
          204 -120 135 -257 86 vhcurveto
          -112 38 rlineto
          -177 60 -102 76 143 vvcurveto
          144 103 102 194 177 134 -103 -223 45 vhcurveto
          55 hlineto
          -13 306 rlineto
          54 -66 -142 51 -182 hhcurveto
          -293 -202 -155 -237 -198 134 -136 240 -79 hvcurveto
          112 -38 rlineto
          192 -65 89 -92 -146 vvcurveto
          -158 -119 -107 -182 -201 -169 112 237 -53 vhcurveto
          -55 hlineto
          13 -313 rlineto
          82 -64 151 -50 183 -7 -102 -137 rcurveline
          -85 callgsubr
          74 53 callsubr
          -74 callgsubr
          endchar
        </CharString>
        <CharString name="Schwa">
          1480 684 -26 rmoveto
          414 280 293 457 483 -300 264 -410 -229 -175 -47 -63 -90 hvcurveto
          -13 -314 rlineto
          55 hlineto
          227 51 149 112 230 hhcurveto
          320 176 -245 -413 -18 0 -17 -1 -17 hvcurveto
          -1058 1 rlineto
          -5 -31 -3 -33 -32 vvcurveto
          -353 201 -254 408 vhcurveto
          -388 598 rmoveto
          11 0 10 11 vvcurveto
          841 2 -28 -325 -144 -221 -274 -1 rlinecurve
          -292 -103 227 286 hvcurveto
          endchar
        </CharString>
        <CharString name="Scircumflex">
          1168 420 -60 callsubr
          -15 callsubr
          222 -1583 97 callsubr
          endchar
        </CharString>
        <CharString name="Scommaaccent">
          1168 571 -26 97 callsubr
          -9 -448 -65 callsubr
          -36 callsubr
          136 callsubr
          126 callsubr
        </CharString>
        <CharString name="Sdotaccent">
          1168 607 -55 callsubr
          -36 -1624 97 callsubr
          endchar
        </CharString>
        <CharString name="Sdotbelow">
          1168 571 -26 97 callsubr
          -175 vmoveto
          -65 callgsubr
        </CharString>
        <CharString name="Sdotbelowdotaccent">
          1168 607 -55 callsubr
          -36 -1624 97 callsubr
          -175 vmoveto
          -65 callgsubr
        </CharString>
        <CharString name="Shacyrillic">
          2266 2041 -12 callsubr
          202 callsubr
          2138 59 vlineto
          -144 16 -17 19 89 vvcurveto
          endchar
        </CharString>
        <CharString name="Shchacyrillic">
          2300 2235 75 rmoveto
          -194 1186 hlineto
          89 17 19 144 16 vhcurveto
          59 202 callsubr
          1821 vlineto
          176 36 -26 -285 79 hvcurveto
          67 hlineto
          endchar
        </CharString>
        <CharString name="Sigmagreek">
          1267 1117 1444 rmoveto
          -1053 -55 hlineto
          497 -683 -494 -600 rlineto
          -106 1088 vlineto
          16 422 rlineto
          -56 hlineto
          -236 -50 -73 -30 -291 hhcurveto
          -499 hlineto
          538 614 0 27 -414 580 365 -11 266 -9 68 -58 50 -207 rlinecurve
          55 hlineto
          endchar
        </CharString>
        <CharString name="Softsigncyrillic">
          1290 212 callsubr
          -233 -11 -19 callgsubr
        </CharString>
        <CharString name="T">
          1340 -38 callsubr
          -59 callsubr
          -49 callsubr
          -48 callsubr
          -45 callsubr
          1 callsubr
          endchar
        </CharString>
        <CharString name="Taugreek">
          1340 -38 callsubr
          -59 callsubr
          -49 callsubr
          -48 callsubr
          -45 callsubr
          1 callsubr
          endchar
        </CharString>
        <CharString name="Tbar">
          1340 280 703 rmoveto
          282 -507 hlineto
          -97 -20 -24 -155 -16 vhcurveto
          -59 -48 callsubr
          24 97 vvcurveto
          507 282 74 -282 598 1 callsubr
          -13 352 -1214 0 -13 -352 rlineto
          55 hlineto
          41 -59 callsubr
          -598 -282 vlineto
          endchar
        </CharString>
        <CharString name="Tcaron">
          1340 876 -72 callsubr
          6 callsubr
          330 -395 -50 callgsubr
          -59 callsubr
          -49 callsubr
          -48 callsubr
          -45 callsubr
          1 callsubr
          endchar
        </CharString>
        <CharString name="Tcedilla">
          1340 640 -474 28 callsubr
          -4 hhcurveto
          77 112 rlineto
          231 59 hlineto
          -156 16 -20 -45 callsubr
          1 callsubr
          -13 352 -1214 0 -13 -352 rlineto
          55 hlineto
          41 -59 callsubr
          -49 callsubr
          259 vlineto
          -119 -163 rlineto
          -56 vlineto
          3 9 18 3 18 hhcurveto
          73 57 -29 -57 -56 -52 -30 -67 -30 callgsubr
          72 -28 88 hhcurveto
          endchar
        </CharString>
        <CharString name="Tcircumflexbelow">
          1340 -38 callsubr
          -59 callsubr
          -49 callsubr
          -48 callsubr
          -45 callsubr
          1 callsubr
          -820 -1551 161 callsubr
        </CharString>
        <CharString name="Tcommaaccent">
          1340 -38 callsubr
          -59 callsubr
          -49 callsubr
          -48 callsubr
          -45 callsubr
          1 callsubr
          -629 -1566 -65 callsubr
          -36 callsubr
          18 72 callsubr
        </CharString>
        <CharString name="Tdotaccent">
          1340 670 -55 callsubr
          607 -154 -50 callgsubr
          -59 callsubr
          -49 callsubr
          -48 callsubr
          -45 callsubr
          1 callsubr
          endchar
        </CharString>
        <CharString name="Tdotbelow">
          1340 -38 callsubr
          -59 callsubr
          -49 callsubr
          -48 callsubr
          -45 callsubr
          1 callsubr
          -620 -1293 -43 callsubr
        </CharString>
        <CharString name="Tecyrillic">
          1340 -38 callsubr
          -59 callsubr
          -49 callsubr
          -48 callsubr
          -45 callsubr
          1 callsubr
          endchar
        </CharString>
        <CharString name="Thetagreek">
          1655 826 -26 rmoveto
          440 287 333 415 466 -358 282 -366 -441 -286 -333 -415 -466 358 -282 366 hvcurveto
          15 83 rmoveto
          -312 -191 309 374 357 138 290 338 311 192 -309 -374 -356 -138 -291 -338 hvcurveto
          -325 425 rmoveto
          50 hlineto
          152 25 39 45 134 hhcurveto
          122 hlineto
          133 39 -45 -152 24 hvcurveto
          51 464 -51 hlineto
          -150 -24 -39 -45 -133 hhcurveto
          -122 hlineto
          -134 -39 45 150 -25 hvcurveto
          -50 hlineto
          endchar
        </CharString>
        <CharString name="Thorn">
          1268 1193 742 rmoveto
          265 -238 124 -357 vhcurveto
          -156 117 hlineto
          97 20 24 156 16 vhcurveto
          59 -554 -59 vlineto
          144 -16 18 -19 -88 vvcurveto
          -1080 vlineto
          -88 -18 -19 -144 -16 vhcurveto
          -59 -21 callsubr
          137 156 vlineto
          343 252 136 272 hvcurveto
          -232 -16 rmoveto
          -207 -148 -105 -275 -8 vhcurveto
          -96 -3 0 659 96 -3 rlineto
          275 -8 148 -118 -207 vvcurveto
          endchar
        </CharString>
        <CharString name="Tlinebelow">
          1340 -38 callsubr
          -59 callsubr
          -49 callsubr
          -48 callsubr
          -45 callsubr
          1 callsubr
          -881 -1446 -51 callsubr
        </CharString>
        <CharString name="Tsecyrillic">
          1642 1576 75 rmoveto
          -194 1186 hlineto
          89 18 19 143 16 vhcurveto
          59 -531 -60 vlineto
          134 -15 20 -18 -86 vvcurveto
          -1190 -724 1190 -32 callsubr
          -56 callsubr
          -107 callsubr
          1162 vlineto
          176 36 -26 -285 79 hvcurveto
          67 hlineto
          endchar
        </CharString>
        <CharString name="Tshecyrillic">
          1794 -38 callsubr
          -15 callgsubr
          478 vlineto
          44 74 102 23 120 hhcurveto
          218 109 -122 -242 hvcurveto
          -368 370 59 vlineto
          -134 16 -20 17 86 vvcurveto
          201 vlineto
          324 -198 124 -285 -149 -128 -36 -52 -79 vhcurveto
          635 78 callgsubr
        </CharString>
        <CharString name="U">
          1531 188 1266 -85 callsubr
        </CharString>
        <CharString name="Uacute">
          1531 789 -84 callsubr
          -80 callsubr
          -528 -291 -85 callsubr
        </CharString>
        <CharString name="Ubreve">
          1531 820 63 callsubr
          -632 -330 -85 callsubr
        </CharString>
        <CharString name="Ubrevecyrillic">
          1424 776 198 callsubr
          -526 -1492 184 callsubr
        </CharString>
        <CharString name="Ucaron">
          1531 1026 -72 callsubr
          6 callsubr
          -909 -573 -85 callsubr
        </CharString>
        <CharString name="Ucircumflex">
          1531 633 -60 callsubr
          -15 callsubr
          -374 -291 -85 callsubr
        </CharString>
        <CharString name="Ucircumflexbelow">
          120 callsubr
          409 -1725 -50 callsubr
          -23 callsubr
        </CharString>
        <CharString name="Ucyrillic">
          1424 250 107 184 callsubr
        </CharString>
        <CharString name="Udblgrave">
          1531 611 115 callsubr
          -836 -290 -85 callsubr
        </CharString>
        <CharString name="Udieresis">
          1531 656 -42 callsubr
          -797 -330 -85 callsubr
        </CharString>
        <CharString name="Udieresisacute">
          1531 1084 -47 callsubr
          16 callsubr
          117 -203 9 callsubr
          -41 callsubr
          40 callsubr
          -779 -290 -85 callsubr
        </CharString>
        <CharString name="Udieresisbelow">
          120 callsubr
          406 -1661 rmoveto
          50 callgsubr
          405 hmoveto
          57 46 42 55 55 -46 42 -57 -57 -46 -42 -55 -55 46 -42 57 hvcurveto
          endchar
        </CharString>
        <CharString name="Udieresiscaron">
          1531 1084 1955 rmoveto
          -264 -91 -265 91 0 -54 243 -145 44 0 241 145 rlineto
          -410 -345 9 callsubr
          -41 callsubr
          40 callsubr
          -779 -290 -85 callsubr
        </CharString>
        <CharString name="Udieresisgrave">
          1531 556 1835 -38 callgsubr
          117 -395 9 callsubr
          -41 callsubr
          40 callsubr
          -779 -290 -85 callsubr
        </CharString>
        <CharString name="Udieresismacron">
          1531 555 1812 rmoveto
          529 87 -529 hlineto
          118 -343 9 callsubr
          -41 callsubr
          40 callsubr
          -779 -290 -85 callsubr
        </CharString>
        <CharString name="Udotbelow">
          120 callsubr
          608 -1467 -74 callsubr
          -68 callsubr
        </CharString>
        <CharString name="Ugrave">
          1531 868 31 callsubr
          -381 -559 -85 callsubr
        </CharString>
        <CharString name="Uhookabove">
          1531 841 79 callsubr
          125 callsubr
          -653 -612 -85 callsubr
        </CharString>
        <CharString name="Uhorn">
          1619 192 534 57 callsubr
        </CharString>
        <CharString name="Uhornacute">
          1619 814 -84 callsubr
          -80 callsubr
          -549 -1023 57 callsubr
        </CharString>
        <CharString name="Uhorndotbelow">
          1619 192 534 rmoveto
          -389 281 -171 291 359 216 218 347 3 vhcurveto
          8 866 rlineto
          -2 12 13 -1 13 hhcurveto
          149 73 65 104 82 -52 83 -70 48 hvcurveto
          -59 hlineto
          19 -27 16 -54 -53 vvcurveto
          -117 -1 -78 -89 -191 hhcurveto
          -122 -59 hlineto
          158 -20 16 -20 -106 vvcurveto
          5 -687 rlineto
          -299 2 -161 -164 -259 hhcurveto
          -243 -182 151 309 hvcurveto
          701 vlineto
          95 21 20 153 20 vhcurveto
          59 -546 -59 vlineto
          136 -20 20 -20 -95 vvcurveto
          633 -1451 -74 callsubr
          -68 callsubr
        </CharString>
        <CharString name="Uhorngrave">
          1619 893 31 callsubr
          -402 -1291 57 callsubr
        </CharString>
        <CharString name="Uhornhookabove">
          1619 866 79 callsubr
          125 callsubr
          -674 -1344 57 callsubr
        </CharString>
        <CharString name="Uhorntilde">
          1619 957 106 callsubr
          -765 -1041 57 callsubr
        </CharString>
        <CharString name="Uhungarumlaut">
          1531 720 -21 callgsubr
          -1050 -566 -85 callsubr
        </CharString>
        <CharString name="Uinvertedbreve">
          1531 819 32 callsubr
          119 callsubr
          -631 -622 -85 callsubr
        </CharString>
        <CharString name="Umacron">
          1531 567 7 callsubr
          -379 -466 -85 callsubr
        </CharString>
        <CharString name="Umacrondieresis">
          1531 673 151 callsubr
          -47 -35 -32 -41 -41 35 -31 47 hvcurveto
          -392 -198 rmoveto
          490 88 -490 hlineto
          -387 -407 -85 callsubr
        </CharString>
        <CharString name="Uogonek">
          1531 825 -485 rmoveto
          78 67 32 43 30 hvcurveto
          -1 60 rlineto
          -17 -17 -31 -14 -36 hhcurveto
          -75 -56 76 104 67 19 66 31 45 hvcurveto
          315 29 184 214 4 325 rrcurveto
          7 670 1 126 19 28 138 15 rlinecurve
          60 -429 -59 vlineto
          149 -16 18 -28 -127 vvcurveto
          7 -654 rlineto
          215 callsubr
          -48 callgsubr
          vhcurveto
          4 3 0 3 hhcurveto
          -86 -80 -56 -97 -92 vvcurveto
          -118 87 -72 111 vhcurveto
          endchar
        </CharString>
        <CharString name="Upsilondieresisgreek">
          1345 569 1596 rmoveto
          55 44 43 55 55 -44 43 -55 -19 callsubr
          329 hmoveto
          55 44 43 55 55 -44 43 -55 -19 callsubr
          -666 -407 -62 callsubr
        </CharString>
        <CharString name="Upsilongreek">
          1345 232 1189 -62 callsubr
        </CharString>
        <CharString name="Upsilontonosgreek">
          1660 547 1189 rmoveto
          333 -536 rlineto
          -456 13 callsubr
          567 11 callsubr
          163 callsubr
          155 -19 5 -39 -87 -154 rrcurveto
          -256 -444 -278 460 -83 139 12 39 148 18 rlinecurve
          59 -551 -59 vlineto
          109 -15 34 -28 96 -153 rrcurveto
          -479 -104 -25 callsubr
        </CharString>
        <CharString name="Uring">
          1531 585 1743 rmoveto
          -108 107 -72 128 127 107 72 108 108 -106 73 -128 -128 -107 4 callgsubr
          -533 -477 -85 callsubr
        </CharString>
        <CharString name="Utilde">
          1531 932 106 callsubr
          -744 -309 -85 callsubr
        </CharString>
        <CharString name="Utildeacute">
          1531 1084 -47 callsubr
          16 callsubr
          378 -202 -7 callsubr
          128 callsubr
          -746 -291 -85 callsubr
        </CharString>
        <CharString name="Utildebelow">
          120 callsubr
          717 -1678 -28 callgsubr
        </CharString>
        <CharString name="V">
          84 callgsubr
          endchar
        </CharString>
        <CharString name="Vdotbelow">
          84 callgsubr
          509 -1390 -74 callsubr
          -68 callsubr
        </CharString>
        <CharString name="Vecyrillic">
          1345 1254 416 107 callsubr
        </CharString>
        <CharString name="Vtilde">
          1405 871 1575 rmoveto
          88 73 -45 callgsubr
          -38 hhcurveto
          -28 -102 callgsubr
          -39 -103 callgsubr
          66 hlineto
          91 169 callsubr
          -677 -386 rmoveto
          199 callsubr
          endchar
        </CharString>
        <CharString name="W">
          2149 193 1189 19 callsubr
        </CharString>
        <CharString name="Wacute">
          2149 1097 -84 callsubr
          -80 callsubr
          -831 -368 19 callsubr
        </CharString>
        <CharString name="Wcircumflex">
          2149 941 -60 callsubr
          -15 callsubr
          -677 -368 19 callsubr
        </CharString>
        <CharString name="Wdieresis">
          2149 964 -42 callsubr
          -1100 -407 19 callsubr
        </CharString>
        <CharString name="Wdotaccent">
          2149 1128 -55 callsubr
          -935 -409 19 callsubr
        </CharString>
        <CharString name="Wdotbelow">
          2149 193 1189 rmoveto
          384 -1191 136 0 366 1158 353 -1158 137 0 378 1168 57 175 32 28 123 16 rlinecurve
          59 -434 -59 vlineto
          156 -20 11 -32 -48 -162 rrcurveto
          -279 -950 -285 967 -44 151 11 27 147 19 rlinecurve
          59 -527 -59 vlineto
          152 -21 14 -26 -46 -157 rrcurveto
          -278 -960 -291 968 -43 145 13 32 150 19 rlinecurve
          59 -548 -59 vlineto
          114 -14 39 -26 50 -156 rrcurveto
          884 -1390 -43 callsubr
        </CharString>
        <CharString name="Wgrave">
          2149 1176 31 callsubr
          -684 -636 19 callsubr
        </CharString>
        <CharString name="X">
          1371 280 280 56 callsubr
        </CharString>
        <CharString name="Xdieresis">
          1371 581 1596 rmoveto
          56 44 43 55 55 -44 43 -56 -19 callsubr
          329 hmoveto
          56 44 43 55 55 -44 43 -56 -19 callsubr
          -630 -1316 56 callsubr
        </CharString>
        <CharString name="Xdotaccent">
          1371 745 -40 callsubr
          -465 -1318 56 callsubr
        </CharString>
        <CharString name="Xigreek">
          1349 1252 1444 rmoveto
          -1155 hlineto
          -14 -371 rlineto
          54 hlineto
          182 48 82 39 242 hhcurveto
          331 hlineto
          243 81 -39 -182 47 hvcurveto
          55 hlineto
          -701 -378 rmoveto
          219 hlineto
          152 41 -42 -149 26 hvcurveto
          51 453 -51 hlineto
          -148 -27 -40 -40 -152 hhcurveto
          -219 hlineto
          -152 -40 40 148 -26 hvcurveto
          -52 -453 52 hlineto
          149 26 40 42 152 hhcurveto
          693 -695 rmoveto
          17 412 rlineto
          -55 hlineto
          -231 -49 -74 -29 -290 hhcurveto
          -265 hlineto
          -290 -74 29 231 -49 hvcurveto
          -54 hlineto
          16 -412 rlineto
          endchar
        </CharString>
        <CharString name="Xigreek.1">
          1352 566 695 rmoveto
          75 -543 -98 hlineto
          -290 -74 30 230 -48 hvcurveto
          -55 hlineto
          17 -412 1166 0 17 412 rlineto
          -54 hlineto
          -231 -49 -75 -29 -290 hhcurveto
          -98 543 75 hlineto
          153 40 -42 -149 26 hvcurveto
          51 453 -51 hlineto
          -148 -27 -39 -40 -153 hhcurveto
          -75 525 131 hlineto
          243 81 -39 -182 48 hvcurveto
          55 hlineto
          -14 371 -1156 0 -14 -371 rlineto
          55 hlineto
          182 47 83 39 242 hhcurveto
          130 -525 -75 hlineto
          -152 -40 40 148 -26 hvcurveto
          -51 -453 51 hlineto
          149 26 40 42 152 hhcurveto
          endchar
        </CharString>
        <CharString name="Y">
          1345 232 1189 -62 callsubr
        </CharString>
        <CharString name="Yacute">
          1345 702 -84 callsubr
          47 callsubr
          -397 -368 -62 callsubr
        </CharString>
        <CharString name="Ycircumflex">
          1345 546 -60 callsubr
          92 callsubr
          -243 -368 -62 callsubr
        </CharString>
        <CharString name="Ydieresis">
          1345 569 1596 rmoveto
          55 44 43 55 55 -44 43 -55 -19 callsubr
          329 hmoveto
          55 44 43 55 55 -44 43 -55 -19 callsubr
          -666 -407 -62 callsubr
        </CharString>
        <CharString name="Ydotaccent">
          1345 733 1598 rmoveto
          56 44 43 54 54 -44 43 -56 -56 -44 -43 -54 -54 44 -43 56 hvcurveto
          -501 -409 -62 callsubr
        </CharString>
        <CharString name="Ydotbelow">
          1345 232 1189 rmoveto
          333 -536 rlineto
          -456 vlineto
          -97 -21 -25 -155 -16 vhcurveto
          -59 568 59 vlineto
          -156 16 -20 25 97 vvcurveto
          163 callsubr
          219 callsubr
          447 -1390 -43 callsubr
        </CharString>
        <CharString name="Yericyrillic">
          1866 212 callsubr
          440 -261 -82 callsubr
          -100 callsubr
          -107 callsubr
          36 callsubr
          -673 250 -19 callgsubr
        </CharString>
        <CharString name="Ygrave">
          1345 781 31 callsubr
          -250 -636 -62 callsubr
        </CharString>
        <CharString name="Yhookabove">
          1345 754 1878 rmoveto
          -89 -65 -38 -44 -33 hvcurveto
          -47 vlineto
          22 27 44 17 53 hhcurveto
          63 39 -29 -44 -48 -46 -41 -82 -56 -73 callgsubr
          -522 -689 -62 callsubr
        </CharString>
        <CharString name="Yicyrillic">
          667 170 -42 callsubr
          -57 -1413 -82 callsubr
          -100 callsubr
          -107 callsubr
          -81 callsubr
        </CharString>
        <CharString name="Ymacron">
          1345 480 7 callsubr
          -248 -543 -62 callsubr
        </CharString>
        <CharString name="Ytilde">
          1345 845 1575 rmoveto
          88 73 -45 callgsubr
          -38 hhcurveto
          -28 -102 callgsubr
          -39 -103 callgsubr
          66 hlineto
          91 169 callsubr
          -613 -386 -62 callsubr
        </CharString>
        <CharString name="Z">
          1251 1158 hmoveto
          23 callsubr
        </CharString>
        <CharString name="Zacute">
          1251 595 -84 callsubr
          47 callsubr
          636 -1557 rmoveto
          23 callsubr
        </CharString>
        <CharString name="Zcaron">
          1251 832 -72 callsubr
          5 callsubr
          255 -1839 rmoveto
          23 callsubr
        </CharString>
        <CharString name="Zcircumflex">
          1251 439 -60 callsubr
          92 callsubr
          790 -1557 rmoveto
          23 callsubr
        </CharString>
        <CharString name="Zdotaccent">
          1251 626 1598 rmoveto
          56 44 43 54 54 -44 43 -56 -56 -44 -43 -54 -54 44 -43 56 hvcurveto
          532 -1598 rmoveto
          23 callsubr
        </CharString>
        <CharString name="Zdotbelow">
          -25 callgsubr
          548 -212 rmoveto
          -56 -45 -42 -54 -55 45 -43 56 56 44 43 55 54 -44 42 -56 hvcurveto
          endchar
        </CharString>
        <CharString name="Zecyrillic">
          1249 1158 417 rmoveto
          230 -181 111 -238 22 vhcurveto
          196 35 161 115 188 vvcurveto
          213 -161 139 -337 -198 -157 -54 -60 -81 vhcurveto
          -13 -293 rlineto
          55 hlineto
          225 55 121 97 201 hhcurveto
          198 93 -121 -174 -183 -116 -115 -212 hvcurveto
          -144 -69 144 hlineto
          246 137 -113 -210 -219 -148 -122 -222 -191 -137 87 245 -58 hvcurveto
          -54 hlineto
          14 -292 rlineto
          -65 89 171 -60 183 hhcurveto
          323 261 160 283 hvcurveto
          endchar
        </CharString>
        <CharString name="Zetagreek">
          1251 1158 hmoveto
          23 callsubr
        </CharString>
        <CharString name="Zhecyrillic">
          1976 291 hmoveto
          454 714 135 1 rlineto
          -537 vlineto
          -86 -16 -17 -138 -16 vhcurveto
          -59 515 59 vlineto
          -138 16 -16 17 86 vvcurveto
          537 vlineto
          134 -1 455 -714 rlineto
          306 55 hlineto
          -81 21 -52 49 -135 210 rrcurveto
          -337 529 271 303 136 153 57 44 119 21 rlinecurve
          59 -458 -59 vlineto
          159 -13 7 -45 -100 -122 rrcurveto
          -347 -418 -134 -1 rlineto
          480 vlineto
          86 16 17 138 16 vhcurveto
          59 -515 -95 callgsubr
          -480 vlineto
          -134 1 -347 418 -100 122 8 45 158 13 rlinecurve
          59 -458 -59 vlineto
          118 -21 56 -45 136 -152 rrcurveto
          278 -311 -333 -521 -134 -210 -53 -49 -81 -21 rlinecurve
          -55 vlineto
          endchar
        </CharString>
        <CharString name="Zlinebelow">
          -25 callgsubr
          286 -365 -17 callsubr
        </CharString>
        <CharString name="a">
          1070 380 -20 -98 callsubr
        </CharString>
        <CharString name="a.dnum">
          674 234 -12 65 callgsubr
          15 21 hvcurveto
          42 vlineto
          -3 -7 -10 -1 -11 hhcurveto
          -32 -26 18 44 hvcurveto
          242 14 callgsubr
          20 -17 13 vhcurveto
          8 22 26 4 28 hhcurveto
          81 52 -34 -92 hvcurveto
          -40 vlineto
          -123 -26 rlineto
          -161 -34 -62 -55 -81 vvcurveto
          -78 69 -55 97 vhcurveto
          -20 159 rmoveto
          54 37 32 101 21 vhcurveto
          62 13 rlineto
          -157 vlineto
          -29 -21 -38 -17 -46 hhcurveto
          -55 -40 30 53 hvcurveto
          endchar
        </CharString>
        <CharString name="a.numr">
          664 234 672 rmoveto
          86 70 36 49 29 hvcurveto
          -52 13 49 -30 61 hhcurveto
          44 37 13 16 21 hvcurveto
          41 vlineto
          -2 -7 -10 -1 -11 hhcurveto
          -32 -26 17 45 hvcurveto
          242 vlineto
          126 -88 55 -141 -139 -102 -57 -75 -41 32 -28 41 42 31 30 41 24 -12 21 -17 12 vhcurveto
          8 22 26 5 28 hhcurveto
          81 52 -35 -91 hvcurveto
          -41 vlineto
          -123 -25 rlineto
          -161 -34 -62 -55 -82 vvcurveto
          -78 69 -54 97 vhcurveto
          -20 159 rmoveto
          53 37 33 101 21 vhcurveto
          62 12 rlineto
          -157 vlineto
          -28 -21 -38 -17 -46 hhcurveto
          -55 -40 30 53 hvcurveto
          endchar
        </CharString>
        <CharString name="a.sups">
          674 234 849 65 callgsubr
          16 21 hvcurveto
          41 vlineto
          -3 -7 -10 -1 -11 hhcurveto
          -32 -26 18 45 hvcurveto
          241 14 callgsubr
          21 -17 12 vhcurveto
          8 22 26 5 28 hhcurveto
          81 52 -35 -92 hvcurveto
          -40 vlineto
          -123 -26 rlineto
          -161 -34 -62 -54 -82 vvcurveto
          -78 69 -55 97 vhcurveto
          -20 159 rmoveto
          54 37 33 101 21 vhcurveto
          62 12 rlineto
          -157 vlineto
          -29 -21 -38 -16 -46 hhcurveto
          -55 -40 29 53 hvcurveto
          endchar
        </CharString>
        <CharString name="aacute">
          1070 462 -78 callsubr
          91 callsubr
          -8 -1154 -98 callsubr
        </CharString>
        <CharString name="abreve">
          1070 503 27 callsubr
          -79 78 99 vhcurveto
          10 -68 141 callsubr
          -123 -1177 -98 callsubr
        </CharString>
        <CharString name="abreveacute">
          1070 760 -14 callsubr
          -515 -161 rlineto
          -64 vlineto
          258 -282 -28 callsubr
          -84 76 callsubr
          155 hhcurveto
          -123 -1135 -98 callsubr
        </CharString>
        <CharString name="abrevecyrillic">
          1070 503 1151 rmoveto
          182 106 111 122 70 -41 40 -60 -57 -38 -42 -53 -51 40 -41 49 4 5 0 1 4 hvcurveto
          -51 -37 -68 -34 -89 hhcurveto
          -90 -67 34 51 -38 hvcurveto
          -1 5 4 0 5 hhcurveto
          48 40 43 callgsubr
          -123 -1171 -98 callsubr
        </CharString>
        <CharString name="abrevedotbelow">
          1070 503 27 callsubr
          -79 78 99 vhcurveto
          10 -68 141 callsubr
          -123 -1177 55 callsubr
          256 -664 -89 callsubr
          -69 callsubr
        </CharString>
        <CharString name="abrevegrave">
          1070 245 -70 callgsubr
          258 -507 -28 callsubr
          -84 76 callsubr
          155 hhcurveto
          -123 -1135 -98 callsubr
        </CharString>
        <CharString name="abrevehookabove">
          1070 497 5 callgsubr
          -33 -24 -67 -21 hvcurveto
          53 -41 rlineto
          107 30 66 39 83 vvcurveto
          81 -84 42 -87 vhcurveto
          6 -494 -28 callsubr
          -84 76 callsubr
          155 hhcurveto
          -123 -1135 -98 callsubr
        </CharString>
        <CharString name="abrevetilde">
          1070 614 84 callsubr
          95 callsubr
          -25 -25 123 callsubr
          hvcurveto
          63 hlineto
          52 1 27 21 39 64 callgsubr
          -111 -305 -28 callsubr
          -84 76 callsubr
          155 hhcurveto
          -123 -1135 -98 callsubr
        </CharString>
        <CharString name="acaron">
          1070 717 -71 callsubr
          75 callsubr
          -411 -1521 -98 callsubr
        </CharString>
        <CharString name="acircumflex">
          1070 288 -79 callsubr
          17 callsubr
          166 -1154 -98 callsubr
        </CharString>
        <CharString name="acircumflexacute">
          1070 760 -14 callsubr
          -34 callgsubr
          -27 callsubr
          135 -1195 -98 callsubr
        </CharString>
        <CharString name="acircumflexdotbelow">
          1070 288 -79 callsubr
          17 callsubr
          166 -1154 55 callsubr
          256 -664 -89 callsubr
          -69 callsubr
        </CharString>
        <CharString name="acircumflexgrave">
          1070 245 -70 callgsubr
          -512 vmoveto
          -27 callsubr
          135 -1195 -98 callsubr
        </CharString>
        <CharString name="acircumflexhookabove">
          1070 702 82 callgsubr
          44 14 1 callgsubr
          -87 vhcurveto
          -457 -499 rmoveto
          -27 callsubr
          135 -1195 -98 callsubr
        </CharString>
        <CharString name="acircumflextilde">
          1070 614 84 callsubr
          95 callsubr
          -25 -25 123 callsubr
          hvcurveto
          63 hlineto
          52 1 27 21 39 64 callgsubr
          -369 -310 rmoveto
          -27 callsubr
          135 -1195 -98 callsubr
        </CharString>
        <CharString name="acute">
          1024 472 -26 callsubr
          endchar
        </CharString>
        <CharString name="acutecmb">
          0 -40 -26 callsubr
          endchar
        </CharString>
        <CharString name="acutecmb.short">
          0 -31 1101 rmoveto
          296 268 rlineto
          7 47 callsubr
          endchar
        </CharString>
        <CharString name="acutedotaccentcmb">
          3 callgsubr
          -176 rmoveto
          136 vlineto
          -514 -160 rlineto
          -65 vlineto
          endchar
        </CharString>
        <CharString name="acutedotaccentcmb.short">
          0 1752 vmoveto
          50 40 34 44 44 -40 34 -50 -50 -40 -34 -44 -44 40 -34 50 hvcurveto
          264 -135 42 callsubr
          endchar
        </CharString>
        <CharString name="acyrillic">
          1070 380 -20 -98 callsubr
        </CharString>
        <CharString name="adblgrave">
          1070 252 -4 callsubr
          186 359 rmoveto
          -180 -10 hlineto
          207 -349 rlineto
          75 hlineto
          -329 -1154 -98 callsubr
        </CharString>
        <CharString name="adieresis">
          1070 285 10 callsubr
          -94 callgsubr
          436 hmoveto
          33 callsubr
          -341 -1228 -98 callsubr
        </CharString>
        <CharString name="adieresismacron">
          1070 245 -107 callgsubr
          102 -414 rmoveto
          49 38 37 48 48 -38 38 -49 hvcurveto
          -6 83 callsubr
          324 hmoveto
          37 callsubr
          -49 -37 -38 -48 -48 37 -37 49 hvcurveto
          -278 -1155 -98 callsubr
        </CharString>
        <CharString name="adotaccent">
          1070 503 71 callsubr
          -123 -1221 -98 callsubr
        </CharString>
        <CharString name="adotbelow">
          1070 380 -20 55 callsubr
          256 -664 -89 callsubr
          -69 callsubr
        </CharString>
        <CharString name="adotmacron">
          1070 245 -1 callgsubr
          -42 -41 -52 -52 42 -40 53 hvcurveto
          -123 -1156 -98 callsubr
        </CharString>
        <CharString name="ae">
          1635 383 -20 142 callsubr
        </CharString>
        <CharString name="aeacute">
          1635 771 -78 callsubr
          -73 callsubr
          -314 -1154 142 callsubr
        </CharString>
        <CharString name="aemacron">
          1635 530 -37 callsubr
          -147 -1387 142 callsubr
        </CharString>
        <CharString name="agrave">
          1070 543 1134 rmoveto
          74 hlineto
          -170 359 rlineto
          -223 -10 hlineto
          156 -1503 -98 callsubr
        </CharString>
        <CharString name="ahookabove">
          1070 531 14 callsubr
          -37 hvcurveto
          -55 vlineto
          25 28 51 21 58 hhcurveto
          69 45 -35 -51 -57 -51 -48 -91 -65 hvcurveto
          73 96 callgsubr
          -151 -1519 -98 callsubr
        </CharString>
        <CharString name="ainvertedbreve">
          1070 503 1479 rmoveto
          -183 -102 80 callsubr
          68 9 hlineto
          100 79 77 165 callsubr
          -123 -1499 -98 callsubr
        </CharString>
        <CharString name="alphagreek">
          1261 468 -20 180 callsubr
        </CharString>
        <CharString name="alphatonosgreek">
          1261 611 -88 callgsubr
          -76 -1154 180 callsubr
        </CharString>
        <CharString name="amacron">
          1070 222 -37 callsubr
          158 -1387 -98 callsubr
        </CharString>
        <CharString name="ampersand">
          1569 506 -24 rmoveto
          191 147 91 177 145 hvcurveto
          259 -244 rlineto
          310 55 hlineto
          -79 24 -69 51 -177 165 rrcurveto
          -121 114 138 193 129 181 52 33 108 13 rlinecurve
          59 -449 -59 vlineto
          156 -23 21 -46 -101 -154 rrcurveto
          -100 -154 -345 324 -14 14 -14 13 -13 12 rlinecurve
          218 98 106 113 147 vvcurveto
          174 -144 124 -229 -227 -158 -146 -182 -126 53 -100 135 -144 vhcurveto
          -237 -96 -110 -135 -173 vvcurveto
          -236 179 -157 240 vhcurveto
          -77 1222 rmoveto
          115 80 76 122 126 75 -99 -131 -132 -63 -94 -131 -78 vhcurveto
          -153 152 -56 85 106 vvcurveto
          -151 -743 rmoveto
          120 64 89 132 67 vhcurveto
          28 -28 31 -30 34 -32 381 -359 rcurveline
          -126 -103 -105 -58 -115 hhcurveto
          -187 -160 143 214 hvcurveto
          endchar
        </CharString>
        <CharString name="anoteleiagreek">
          517 258 752 rmoveto
          72 58 59 72 94 callsubr
          -72 59 -59 70 hvcurveto
          endchar
        </CharString>
        <CharString name="aogonek">
          1069 380 -20 rmoveto
          146 122 66 80 53 hvcurveto
          -91 21 71 -50 99 10 9 1 9 hhcurveto
          -175 -109 -67 -93 -100 vvcurveto
          -105 87 -64 103 83 70 30 45 35 vhcurveto
          -1 59 rlineto
          -19 -19 -35 -12 -42 hhcurveto
          -56 -51 39 78 90 51 83 147 122 hvcurveto
          54 vlineto
          -6 -14 -19 -3 -20 hhcurveto
          -60 -48 34 89 hvcurveto
          503 vlineto
          212 -145 95 -223 -221 -179 -94 -133 -62 49 -46 61 63 48 45 59 48 -31 40 -40 14 vhcurveto
          29 48 63 15 69 hhcurveto
          146 99 -64 -183 hvcurveto
          -89 vlineto
          -224 -49 rlineto
          -270 -59 -112 -92 -158 vvcurveto
          -147 124 -102 166 vhcurveto
          -90 283 rmoveto
          112 70 66 201 45 vhcurveto
          135 29 rlineto
          -328 vlineto
          -66 -45 -76 -38 -93 hhcurveto
          -111 -81 67 113 hvcurveto
          endchar
        </CharString>
        <CharString name="approxequal">
          1156 835 730 rmoveto
          -146 -168 231 -182 hhcurveto
          -156 -104 -103 -233 hvcurveto
          94 hlineto
          168 3 64 63 92 147 167 -231 183 hhcurveto
          156 104 104 232 hvcurveto
          -95 hlineto
          -168 -3 -63 -63 -93 hhcurveto
          -463 vmoveto
          -146 -168 232 -182 hhcurveto
          -156 -104 -104 -233 -16 callgsubr
          -64 -93 hhcurveto
          endchar
        </CharString>
        <CharString name="aring">
          1070 243 1318 rmoveto
          -119 118 35 callgsubr
          -118 -81 -118 vhcurveto
          150 hmoveto
          78 47 54 63 63 46 -54 -78 -79 -46 -53 -63 -63 -47 53 79 vhcurveto
          -13 -1338 -98 callsubr
        </CharString>
        <CharString name="aringacute">
          1070 760 1488 rmoveto
          137 vlineto
          -515 -161 rlineto
          -65 vlineto
          291 -307 rmoveto
          120 76 51 79 79 -76 51 -120 hvcurveto
          -68 80 callgsubr
          -60 hlineto
          -42 -25 27 37 37 25 27 42 hvcurveto
          60 hlineto
          45 23 -27 -37 -37 -23 -27 -45 hvcurveto
          -152 -1178 -98 callsubr
        </CharString>
        <CharString name="aringbelow">
          1070 380 -20 55 callsubr
          -3 -561 207 callsubr
        </CharString>
        <CharString name="asciicircum">
          1156 554 1444 rmoveto
          -434 -584 71 -68 387 516 383 -516 76 68 -435 584 rlineto
          endchar
        </CharString>
        <CharString name="asciitilde">
          1156 835 515 rmoveto
          -146 -168 232 -182 hhcurveto
          -156 -104 -104 -232 -16 callgsubr
          -65 -93 hhcurveto
          endchar
        </CharString>
        <CharString name="asterisk">
          740 354 1155 rmoveto
          32 hlineto
          53 214 rlineto
          61 17 -39 41 -47 hhcurveto
          -47 -38 -41 -61 16 hvcurveto
          88 -214 rmoveto
          14 -29 206 61 rlineto
          62 16 15 55 -23 39 -25 42 -55 13 -44 -46 rrcurveto
          -203 -180 rmoveto
          15 29 -150 151 rlineto
          -44 46 -56 -13 -23 -42 -23 -40 15 -54 62 -17 rrcurveto
          219 -92 rmoveto
          -15 29 -204 -61 rlineto
          -62 -16 -15 -55 23 -39 23 -42 56 -13 44 46 rrcurveto
          202 180 rmoveto
          -14 -28 151 -152 rlineto
          43 -46 55 13 25 42 23 40 -15 54 -62 16 rrcurveto
          -223 31 rmoveto
          -32 hlineto
          -52 -213 rlineto
          -62 -17 38 -41 47 hhcurveto
          47 39 41 62 -17 hvcurveto
          endchar
        </CharString>
        <CharString name="at">
          1970 578 364 rmoveto
          -199 77 -130 142 115 118 74 156 72 vhcurveto
          -5 -23 rlineto
          -141 -21 70 -87 162 hhcurveto
          272 286 253 424 428 -326 285 -470 -553 -415 -437 -556 -495 338 -330 433 170 177 43 74 93 hvcurveto
          3 61 rlineto
          -71 -127 -133 -24 -163 hhcurveto
          -398 -299 288 466 490 371 408 506 404 295 -231 -404 -386 -248 -199 -174 -69 -38 34 109 23 hvcurveto
          153 716 -86 0 -102 -117 rlineto
          82 -30 -67 57 -109 hhcurveto
          -260 -187 -318 -300 hvcurveto
          182 -14 rmoveto
          256 117 297 182 82 49 -62 -88 9 vhcurveto
          -68 -322 rlineto
          -151 -32 -111 -144 -113 hhcurveto
          -80 -35 90 124 hvcurveto
          endchar
        </CharString>
        <CharString name="atilde">
          1070 619 1189 rmoveto
          91 76 71 188 -3 hvcurveto
          -67 hlineto
          -98 -4 -24 93 callgsubr
          -41 27 -58 hhcurveto
          -90 -76 -71 -189 2 hvcurveto
          68 hlineto
          99 4 23 32 41 hhcurveto
          29 24 -14 -24 31 hvcurveto
          30 -24 rlineto
          -37 49 42 -27 56 hhcurveto
          -239 -1209 -98 callsubr
        </CharString>
        <CharString name="austral">
          1408 221 270 rmoveto
          -61 -170 -28 -25 -122 -16 rrcurveto
          -59 429 59 vlineto
          -154 20 -21 30 54 157 rrcurveto
          40 119 590 0 44 -129 50 -145 -20 -33 -151 -19 rlinecurve
          -59 533 59 vlineto
          -113 14 -33 27 -57 155 -46 130 rcurveline
          249 58 -270 hlineto
          -80 224 rlineto
          350 58 -371 hlineto
          -259 722 -129 0 -260 -722 rlineto
          -375 -58 354 hlineto
          -80 -224 rlineto
          -274 -58 253 hlineto
          211 340 rmoveto
          178 526 179 -526 rlineto
          -453 -282 rmoveto
          76 224 398 0 76 -224 rlineto
          endchar
        </CharString>
        <CharString name="austral.tnum">
          1156 -3 443 rmoveto
          -58 207 vlineto
          -34 -117 -49 -169 -20 -29 -104 -11 rlinecurve
          -59 352 59 vlineto
          -123 14 -15 23 47 171 rrcurveto
          33 118 460 0 34 -127 44 -160 -13 -25 -123 -14 rlinecurve
          -59 466 59 vlineto
          -100 11 -20 27 -48 161 -36 127 rcurveline
          205 58 -222 hlineto
          -65 223 rlineto
          287 59 -304 hlineto
          -210 721 -134 0 -209 -721 rlineto
          -306 -59 289 hlineto
          -65 -223 rlineto
          163 282 rmoveto
          138 498 136 -498 rlineto
          -351 -282 rmoveto
          61 223 306 0 61 -223 rlineto
          endchar
        </CharString>
        <CharString name="b">
          -89 callgsubr
          102 callsubr
          endchar
        </CharString>
        <CharString name="backslash">
          651 514 -280 rmoveto
          123 hlineto
          -498 1860 rlineto
          -124 hlineto
          endchar
        </CharString>
        <CharString name="baht">
          1298 85 30 rmoveto
          538 hlineto
          5 4 0 4 hhcurveto
          -219 59 221 vlineto
          284 19 215 131 245 vvcurveto
          218 -172 117 -255 19 vhcurveto
          192 24 156 102 183 vvcurveto
          189 -146 116 -274 17 vhcurveto
          221 -59 -219 vlineto
          -4 -4 0 -5 hhcurveto
          -538 34 callgsubr
          359 1256 rmoveto
          120 -4 26 -1 24 -2 22 -3 rlinecurve
          -541 vlineto
          -10 -10 -1 -10 hhcurveto
          -162 hlineto
          467 270 rmoveto
          -149 -78 -88 -138 -25 vhcurveto
          523 vlineto
          154 -36 62 -95 -130 vvcurveto
          -467 -339 rmoveto
          162 -1 rlineto
          10 10 0 -1 10 hvcurveto
          -613 vlineto
          -23 -3 -24 -2 -25 -1 -120 -4 rcurveline
          538 316 rmoveto
          -168 -107 -95 -180 -35 vhcurveto
          600 vlineto
          185 -25 102 -106 -171 vvcurveto
          endchar
        </CharString>
        <CharString name="baht.tnum">
          1156 58 31 rmoveto
          519 -220 58 221 hlineto
          266 17 217 135 236 21 callgsubr
          172 -132 114 -271 14 vhcurveto
          221 -58 -220 -519 -59 vlineto
          32 callgsubr
          349 1257 rmoveto
          123 -3 rlineto
          16 16 -1 -2 15 hvcurveto
          -548 vlineto
          -1 -10 -11 0 -10 hhcurveto
          -139 -1 rlineto
          429 286 rmoveto
          -142 -70 -102 -131 -31 vhcurveto
          529 vlineto
          132 -33 69 -90 -131 vvcurveto
          -429 -352 rmoveto
          139 -1 rlineto
          10 11 0 10 hhcurveto
          -621 vlineto
          -2 -16 -15 -1 -16 hhcurveto
          -123 -3 rlineto
          501 315 rmoveto
          -171 -113 -98 -160 -32 vhcurveto
          607 vlineto
          174 -27 99 -108 -171 vvcurveto
          endchar
        </CharString>
        <CharString name="bar">
          651 265 -280 rmoveto
          123 1860 -123 hlineto
          endchar
        </CharString>
        <CharString name="bdotaccent">
          1194 267 1657 rmoveto
          66 52 50 65 64 -52 50 -66 -66 -52 -50 -64 -65 52 -50 66 hvcurveto
          831 -1152 rmoveto
          102 callsubr
          endchar
        </CharString>
        <CharString name="bdotbelow">
          -89 callgsubr
          102 callsubr
          -275 -885 -89 callsubr
          -69 callsubr
        </CharString>
        <CharString name="becyrillic">
          1216 1120 495 rmoveto
          304 -199 190 -290 -208 -149 -122 -169 -69 vhcurveto
          -2 26 -1 26 27 vvcurveto
          226 98 180 301 35 vhcurveto
          124 14 264 30 83 61 15 179 rlinecurve
          -59 hlineto
          -17 -52 -49 -15 -217 -24 -211 -24 -126 -58 -108 -105 rrcurveto
          -128 -125 -68 -201 -315 vvcurveto
          -361 180 -242 317 277 242 201 314 vhcurveto
          -213 -16 rmoveto
          -244 -97 -174 -194 -182 -109 181 248 246 97 171 193 178 114 -179 -249 vhcurveto
          endchar
        </CharString>
        <CharString name="betagreek">
          1172 148 -460 rmoveto
          203 hlineto
          -3 205 -2 181 -2 159 rrcurveto
          -59 57 105 -49 125 hhcurveto
          224 227 148 283 254 -172 156 -226 27 hvcurveto
          157 20 164 118 186 vvcurveto
          205 -154 131 -258 -244 -199 -135 -370 vhcurveto
          188 92 rmoveto
          217 87 114 167 149 78 -112 -161 -178 -114 -106 -230 vhcurveto
          -144 vlineto
          267 -5 144 -138 -218 vvcurveto
          -196 -125 -101 -163 -113 -92 42 64 -50 vhcurveto
          -5 494 0 276 152 vvcurveto
          endchar
        </CharString>
        <CharString name="bitcoin">
          1297 85 30 rmoveto
          393 -219 58 219 86 hlineto
          49 47 3 6 44 hvcurveto
          -228 59 238 vlineto
          218 46 153 125 207 vvcurveto
          218 -171 117 -256 19 vhcurveto
          193 24 156 102 183 vvcurveto
          157 -101 107 -192 41 vhcurveto
          238 -59 -228 vlineto
          6 -43 -46 3 -51 hhcurveto
          -86 219 -58 -219 -393 34 callgsubr
          825 974 rmoveto
          -179 -112 -90 -194 -1 vhcurveto
          -160 552 hlineto
          119 -4 rlineto
          251 -9 96 -107 -162 vvcurveto
          70 -648 rmoveto
          -205 -159 -97 -258 -10 vhcurveto
          -119 -4 0 625 160 -1 rlineto
          242 -1 134 -111 -196 vvcurveto
          endchar
        </CharString>
        <CharString name="bitcoin.tnum">
          1156 58 31 rmoveto
          362 -220 59 220 99 hlineto
          42 41 2 6 39 hvcurveto
          -228 59 239 vlineto
          206 45 153 127 198 21 callgsubr
          143 -92 103 -187 39 vhcurveto
          236 -59 -227 vlineto
          5 -37 -41 2 -44 hhcurveto
          -99 220 -59 -220 -362 -59 hlineto
          32 callgsubr
          778 987 rmoveto
          -172 -102 -113 -188 vhcurveto
          -138 -1 0 556 122 -3 rlineto
          199 -5 107 -100 -162 vvcurveto
          71 -666 rmoveto
          -206 -165 -100 -212 -5 vhcurveto
          -122 -3 0 628 138 -1 rlineto
          228 133 -114 -199 hvcurveto
          endchar
        </CharString>
        <CharString name="blinebelow">
          -89 callgsubr
          102 callsubr
          -537 -838 -17 callsubr
        </CharString>
        <CharString name="braceleft">
          651 390 965 rmoveto
          283 vlineto
          156 34 116 169 vhcurveto
          60 -43 vlineto
          -210 -114 -129 -210 hvcurveto
          -342 vlineto
          -154 -91 -68 -111 vhcurveto
          -49 vlineto
          111 91 -68 -155 hvcurveto
          -345 vlineto
          -211 114 -129 210 vhcurveto
          43 60 hlineto
          -169 -34 116 157 hvcurveto
          286 vlineto
          185 -78 103 -171 25 vhcurveto
          172 26 77 102 185 vvcurveto
          endchar
        </CharString>
        <CharString name="braceright">
          651 261 965 rmoveto
          -185 77 -102 172 -26 vhcurveto
          -171 -25 -78 -103 -185 vvcurveto
          -286 vlineto
          -157 -34 -116 -169 vhcurveto
          -60 43 vlineto
          210 115 129 211 hvcurveto
          345 vlineto
          155 90 68 111 vhcurveto
          49 vlineto
          -111 -90 68 154 hvcurveto
          342 vlineto
          210 -115 129 -210 vhcurveto
          -43 -60 hlineto
          169 34 -116 -156 hvcurveto
          endchar
        </CharString>
        <CharString name="bracketleft">
          651 173 -282 rmoveto
          399 2 0 60 -228 3 0 1734 228 3 0 60 -399 2 rlineto
          endchar
        </CharString>
        <CharString name="bracketright">
          651 478 1582 rmoveto
          -399 -2 0 -60 227 -3 0 -1734 -227 -3 0 -60 399 -2 rlineto
          endchar
        </CharString>
        <CharString name="breve">
          1024 512 1157 rmoveto
          183 101 81 callsubr
          -67 -10 hlineto
          -99 -80 -78 -133 22 callgsubr
        </CharString>
        <CharString name="breveacutecmb">
          116 callsubr
          257 -282 -28 callsubr
          -100 callgsubr
        </CharString>
        <CharString name="breveacutecmb.short">
          0 264 -47 callsubr
          -528 -137 rlineto
          -54 vlineto
          264 -230 117 callsubr
        </CharString>
        <CharString name="brevebelowcmb">
          0 -447 vmoveto
          170 94 125 126 16 0 16 -3 19 callgsubr
          0 -16 -16 vvcurveto
          -126 94 -125 170 vhcurveto
          endchar
        </CharString>
        <CharString name="brevecmb">
          0 1157 vmoveto
          183 101 81 callsubr
          -67 -10 hlineto
          -99 -80 -78 -133 22 callgsubr
        </CharString>
        <CharString name="brevecmb.short">
          0 1140 vmoveto
          162 91 123 123 15 -1 16 -2 14 hvcurveto
          -60 -8 hlineto
          -89 -71 -71 -119 -119 -71 71 89 vhcurveto
          8 -60 vlineto
          -3 -14 -1 -16 -15 vvcurveto
          -123 93 -123 161 vhcurveto
          endchar
        </CharString>
        <CharString name="brevecyrilliccmb">
          0 1151 vmoveto
          -80 callgsubr
          39 -41 49 5 4 0 1 4 hvcurveto
          -51 -37 -68 -34 -89 hhcurveto
          -89 -68 34 51 -37 hvcurveto
          -1 4 4 0 5 hhcurveto
          49 39 43 callgsubr
          endchar
        </CharString>
        <CharString name="brevecyrilliccmb.short">
          0 1599 vmoveto
          25 callgsubr
          4 0 1 3 hvcurveto
          -51 -38 -71 -30 -89 hhcurveto
          -89 -70 30 51 -39 hvcurveto
          -1 4 4 0 4 hhcurveto
          47 39 40 50 53 -38 41 -56 -57 -41 -40 -68 -120 112 -107 181 hvcurveto
          endchar
        </CharString>
        <CharString name="brevegravecmb">
          -83 callgsubr
          257 -507 -28 callsubr
          -100 callgsubr
        </CharString>
        <CharString name="brevegravecmb.short">
          0 -264 129 callsubr
          264 -421 117 callsubr
        </CharString>
        <CharString name="brevehookabovecmb">
          0 -6 5 callgsubr
          76 callgsubr
          -84 42 -87 vhcurveto
          6 -494 -28 callsubr
          -100 callgsubr
        </CharString>
        <CharString name="brevehookabovecmb.short">
          0 -6 1950 rmoveto
          -73 -58 -26 -24 -32 hvcurveto
          -47 vlineto
          12 24 43 13 47 hhcurveto
          58 37 -21 -35 -34 -33 -21 -69 -17 hvcurveto
          53 -35 rlineto
          110 25 69 34 70 vvcurveto
          69 -87 37 -89 vhcurveto
          6 -420 117 callsubr
        </CharString>
        <CharString name="brevetildecmb">
          0 111 84 callsubr
          95 callsubr
          -24 -26 123 callsubr
          8 callgsubr
          -111 -305 -28 callsubr
          -100 callgsubr
        </CharString>
        <CharString name="brevetildecmb.short">
          0 114 1784 rmoveto
          84 66 47 107 hvcurveto
          -64 hlineto
          -45 -1 -28 -17 -40 hhcurveto
          -26 -26 6 13 -40 hvcurveto
          -28 10 rlineto
          13 -42 -38 92 callgsubr
          25 26 -6 -13 40 vhcurveto
          29 -10 rlineto
          -14 41 38 -8 45 hhcurveto
          -114 -254 117 callsubr
        </CharString>
        <CharString name="brokenbar">
          651 265 789 rmoveto
          123 791 -123 hlineto
          -1860 vmoveto
          123 791 -123 hlineto
          endchar
        </CharString>
        <CharString name="bullet">
          730 365 392 rmoveto
          100 82 82 101 103 -82 81 -100 -99 -84 -81 -103 -101 84 -82 99 hvcurveto
          endchar
        </CharString>
        <CharString name="c">
          1006 578 -20 26 callsubr
        </CharString>
        <CharString name="cacute">
          1006 547 -78 callsubr
          -73 callsubr
          105 -1154 26 callsubr
        </CharString>
        <CharString name="caret">
          517 238 hmoveto
          -272 -354 58 -60 234 304 233 -304 61 59 -272 355 rlineto
          endchar
        </CharString>
        <CharString name="caron">
          1024 726 -71 callsubr
          232 -105 callgsubr
          endchar
        </CharString>
        <CharString name="caroncmb">
          0 214 -71 callsubr
          232 -105 callgsubr
          endchar
        </CharString>
        <CharString name="caroncmb.short">
          0 206 1382 rmoveto
          -197 -148 -194 148 -75 0 209 -275 119 0 209 275 rlineto
          endchar
        </CharString>
        <CharString name="carondotaccentcmb">
          3 callgsubr
          -32 rmoveto
          -257 85 callgsubr
          235 178 rlineto
          endchar
        </CharString>
        <CharString name="carondotaccentcmb.short">
          0 1771 vmoveto
          50 40 34 44 44 -40 35 -50 -50 -40 -35 -44 -44 40 -34 50 hvcurveto
          270 -23 rmoveto
          -270 -94 -270 94 0 -55 250 -151 44 0 247 151 rlineto
          endchar
        </CharString>
        <CharString name="caronslovak">
          1024 458 1085 rmoveto
          163 413 -174 0 -45 -413 rlineto
          endchar
        </CharString>
        <CharString name="caronslovakcmb">
          0 76 1085 rmoveto
          163 413 -175 0 -44 -413 rlineto
          endchar
        </CharString>
        <CharString name="ccaron">
          1006 802 -71 callsubr
          75 callsubr
          -298 -1521 26 callsubr
        </CharString>
        <CharString name="ccedilla">
          1006 549 -474 28 callsubr
          -3 hhcurveto
          64 93 147 10 116 59 62 79 rlinecurve
          148 callsubr
          -294 191 -197 255 -17 vhcurveto
          -107 -144 112 callsubr
        </CharString>
        <CharString name="ccedillaacute">
          1006 547 -78 callsubr
          -73 callsubr
          76 -1608 28 callsubr
          -3 hhcurveto
          64 93 147 10 116 59 62 79 rlinecurve
          148 callsubr
          -294 191 -197 255 -17 vhcurveto
          -107 -144 112 callsubr
        </CharString>
        <CharString name="ccircumflex">
          1006 373 -79 callsubr
          17 callsubr
          279 -1154 26 callsubr
        </CharString>
        <CharString name="cdotaccent">
          1006 588 71 callsubr
          -10 -1221 26 callsubr
        </CharString>
        <CharString name="cedi">
          1344 738 -189 rmoveto
          59 200 hlineto
          5 4 0 5 hhcurveto
          178 176 53 58 77 hvcurveto
          13 295 rlineto
          -54 hlineto
          -244 -60 -126 -79 -193 -9 -8 0 -8 hhcurveto
          1256 vlineto
          8 8 0 9 hhcurveto
          198 116 -93 -227 58 hvcurveto
          54 hlineto
          -12 295 rlineto
          59 -92 -136 49 -204 -3 -2 0 -2 hhcurveto
          200 -59 -203 vlineto
          -363 -27 -262 -252 -421 vvcurveto
          -431 276 -253 349 -32 vhcurveto
          -407 734 rmoveto
          340 149 218 258 38 vhcurveto
          -1243 vlineto
          -249 46 -158 251 350 vvcurveto
          endchar
        </CharString>
        <CharString name="cedi.tnum">
          1156 643 -189 rmoveto
          59 201 hlineto
          154 147 44 46 79 hvcurveto
          13 289 rlineto
          -55 hlineto
          -55 -226 -108 -73 -158 1 rrcurveto
          -6 -5 0 1 -6 hvcurveto
          1256 vlineto
          6 7 0 6 hhcurveto
          144 103 -84 -207 51 hvcurveto
          55 hlineto
          -13 289 rlineto
          46 -82 -113 38 -164 hhcurveto
          201 -59 -203 vlineto
          -319 -28 -236 -256 1 -416 rrcurveto
          -461 251 -230 303 -25 vhcurveto
          -338 734 rmoveto
          343 121 212 217 40 vhcurveto
          -1242 vlineto
          -214 43 -124 229 375 vvcurveto
          endchar
        </CharString>
        <CharString name="cedilla">
          1024 482 -474 28 callsubr
          -4 hhcurveto
          77 112 rlineto
          29 -56 vlineto
          -141 -192 1 -56 rlineto
          3 10 18 3 17 hhcurveto
          73 57 -29 -57 -56 -53 -30 -66 -53 -55 16 24 -32 hvcurveto
          -59 vlineto
          -42 37 72 -28 88 hhcurveto
          endchar
        </CharString>
        <CharString name="cedillacmb">
          0 -30 -474 rmoveto
          33 callgsubr
          76 109 rlineto
          29 -56 vlineto
          -141 -189 1 -56 rlineto
          3 10 18 3 17 hhcurveto
          73 53 callsubr
          -30 callgsubr
          71 -28 89 hhcurveto
          endchar
        </CharString>
        <CharString name="cent">
          1015 613 hmoveto
          208 vlineto
          155 8 123 60 63 82 rrcurveto
          59 vlineto
          -59 -61 -100 -38 -108 hhcurveto
          -25 -24 2 4 -23 hvcurveto
          825 vlineto
          1 9 9 0 10 hhcurveto
          64 55 -13 -25 41 hvcurveto
          -40 -13 -30 -40 -48 vvcurveto
          -62 48 -48 62 62 48 49 64 131 -130 89 -208 1 vhcurveto
          207 -59 -210 vlineto
          -259 -26 -199 -199 -294 vvcurveto
          -299 198 -197 260 -11 vhcurveto
          -208 vlineto
          -251 755 rmoveto
          207 100 141 151 38 vhcurveto
          -800 vlineto
          -152 53 -99 149 212 vvcurveto
          endchar
        </CharString>
        <CharString name="cent.1">
          1005 612 hmoveto
          208 vlineto
          151 8 118 61 63 80 rrcurveto
          60 vlineto
          -58 -61 -94 -39 -104 56 callgsubr
          66 52 -12 -25 39 27 callgsubr
          -200 3 vhcurveto
          207 -59 -209 vlineto
          -255 -23 -202 30 callgsubr
        </CharString>
        <CharString name="cent.1.tnum">
          1156 645 hmoveto
          208 vlineto
          151 8 119 61 63 80 -1 60 rcurveline
          -58 -60 -95 -39 -103 56 callgsubr
          65 52 -12 -25 40 27 callgsubr
          -201 3 vhcurveto
          207 -58 -210 vlineto
          -256 -22 -201 30 callgsubr
        </CharString>
        <CharString name="cent.tnum">
          1156 641 hmoveto
          208 vlineto
          156 8 122 60 64 82 rrcurveto
          59 vlineto
          -59 -62 -99 -38 -108 hhcurveto
          -25 -25 2 4 -23 hvcurveto
          825 vlineto
          1 10 9 0 10 hhcurveto
          64 55 -13 -24 41 hvcurveto
          -40 -14 -30 -40 -48 vvcurveto
          -62 47 -48 62 62 49 49 64 131 -130 89 -209 1 vhcurveto
          207 -59 -210 vlineto
          -258 -26 -199 -199 -294 vvcurveto
          -298 197 -198 260 -11 vhcurveto
          -208 vlineto
          -250 755 rmoveto
          206 100 141 150 39 vhcurveto
          -800 vlineto
          -152 53 -98 149 212 vvcurveto
          endchar
        </CharString>
        <CharString name="checyrillic">
          1201 169 704 rmoveto
          -221 136 -102 193 118 109 31 40 68 vhcurveto
          -302 vlineto
          -69 -20 -13 -136 -9 vhcurveto
          -59 495 59 vlineto
          -123 8 -19 13 70 vvcurveto
          688 vlineto
          70 19 13 123 7 vhcurveto
          60 -478 -60 vlineto
          122 -7 17 -13 -69 vvcurveto
          -327 vlineto
          -20 -43 -92 -22 -78 hhcurveto
          -140 -74 71 171 hvcurveto
          127 vlineto
          69 18 13 118 7 vhcurveto
          60 -474 -60 vlineto
          123 -7 18 -13 -70 vvcurveto
          endchar
        </CharString>
        <CharString name="chigreek">
          1085 260 -460 rmoveto
          216 648 161 -368 rlineto
          -217 90 67 -78 126 hhcurveto
          72 53 31 39 37 hvcurveto
          59 vlineto
          -10 -14 -26 -10 -30 hhcurveto
          -67 -43 40 165 -76 hvcurveto
          -198 453 124 235 134 233 146 227 rlinecurve
          -224 hlineto
          -214 -617 -146 334 rlineto
          217 -90 -65 77 -127 hhcurveto
          -73 -52 -31 -38 -37 hvcurveto
          -60 vlineto
          11 14 26 9 29 hhcurveto
          68 46 -38 -167 73 hvcurveto
          183 -418 -133 -260 -133 -242 -140 -224 rlinecurve
          endchar
        </CharString>
        <CharString name="circumflex">
          1024 298 -79 callsubr
          -232 -32 callgsubr
          endchar
        </CharString>
        <CharString name="circumflexacutecmb">
          116 callsubr
          -287 vmoveto
          121 callsubr
        </CharString>
        <CharString name="circumflexacutecmb.short">
          0 264 1814 42 callsubr
          -245 vmoveto
          85 callsubr
          -241 -151 rlineto
          endchar
        </CharString>
        <CharString name="circumflexbelowcmb">
          0 -199 -459 -50 callsubr
          71 0 -215 323 -106 0 -215 -323 rlineto
          endchar
        </CharString>
        <CharString name="circumflexcmb">
          0 -214 -79 callsubr
          -232 -32 callgsubr
          endchar
        </CharString>
</ttFont>
